<?xml version="1.0" encoding="utf-8"?>

<!DOCTYPE svg PUBLIC "-//W3C//DTD SVG 1.1//EN" "http://www.w3.org/Graphics/SVG/1.1/DTD/svg11.dtd">
<svg version="1.1" id="Layer_1" xmlns="http://www.w3.org/2000/svg" xmlns:xlink="http://www.w3.org/1999/xlink" x="0px" y="0px"
	 viewBox="0 0 2682.528 1661.609" enable-background="new 0 0 2682.528 1661.609" xml:space="preserve">
<g>
	<g>
		<g>
			<path fill="#C55B11" stroke="#C55B11" stroke-width="0.0938" d="M1696.701,1128.565c34.187-15.613,75.918-10.218,107.128,9.82
				c-14.451,3.199-28.632,7.751-42.129,13.815c-28.234,13.481-53.031,32.802-79.213,49.705
				c-72.783,48.623-145.088,97.945-217.886,146.52c-31.449,21.693-63.647,42.256-94.969,64.14
				c-24.176,16.17-48.336,32.357-72.464,48.559c-22.903,15.852-44.118,34.871-58.761,58.808c-2.053-18.032-2.53-36.59,2.658-54.177
				c5.347-21.805,18.494-40.951,34.999-55.896c128.567-86.263,256.8-173.083,385.463-259.235
				C1673.257,1143.303,1683.857,1134.024,1696.701,1128.565z"/>
			<path fill="#843C0C" stroke="#843C0C" stroke-width="0.0938" d="M1803.829,1138.385c16.743-1.798,34.49-3.04,50.421,3.597
				c11.969,5.061,23.062,14.611,26.102,27.757c5.841,21.12-2.387,42.909-13.226,60.941c-14.499,24.033-36.367,42.479-58.904,58.697
				c-107.256,71.987-214.241,144.387-321.53,216.358c-14.706,10.297-30.065,19.608-44.532,30.24
				c-23.539,15.12-46.283,31.402-69.886,46.394c-23.364,14.563-48.941,27.152-76.682,29.906c-18.542,2.817-39.025,1.257-54.75-9.82
				c-11.316-7.464-17.173-21.184-17.443-34.426c-0.35-17.141,6.287-33.63,15.008-48.097c14.643-23.937,35.858-42.957,58.761-58.808
				c24.128-16.202,48.288-32.389,72.464-48.559c31.322-21.884,63.52-42.447,94.969-64.14
				c72.798-48.575,145.104-97.898,217.886-146.52c26.182-16.902,50.978-36.224,79.213-49.705
				C1775.197,1146.136,1789.378,1141.584,1803.829,1138.385 M1775.977,1163.262c-6.796,4.918-14.34,8.849-20.611,14.388
				c-3.119,9.454-5.475,19.258-7.067,29.078c0.127,18.144,4.663,36.033,4.997,54.161c-2.26,6.987-6.159,13.353-10.043,19.529
				c-17.412,0.525-35.285,2.181-52.22-2.849c-21.868-6.191-44.771-6.891-67.339-6.653c-3.947,0.079-8.26-0.35-11.427,2.371
				c-6.191,4.854-14.674,7.862-17.714,15.709c-2.626,5.984-6.478,11.555-7.83,18.001c-0.605,12.446,0.971,25.02,5.125,36.813
				c4.154,12.048,6.732,24.765,5.682,37.561c-2.61,5.061-6.446,9.343-9.454,14.133c-5.762-0.159-11.984,0.78-17.141-2.276
				c-8.197-4.504-16.123-9.518-24.463-13.735c-12.016-5.746-24.478-10.473-36.638-15.868c-8.96-4.393-19.322-3.517-28.967-3.533
				c-7.703,3.422-15.756,6.923-21.2,13.64c-7.241,6.526-9.852,16.361-11.507,25.577c1.273,6.987,5.809,13.306,5.109,20.659
				c-1.766,21.088,2.658,42.097,1.13,63.217c-2.865,1.48-5.682,3.629-9.009,3.279c-9.183,0.111-17.778-3.438-26.086-6.86
				c-8.961-3.788-18.287-6.716-26.914-11.205c-6.303-3.263-13.258-5.364-18.908-9.724c-5.698-4.329-10.998-9.152-16.95-13.099
				c-8.006,5.268-16.027,10.52-23.826,16.027c-3.82,2.26-3.74,7.114-4.186,10.966c-0.812,11.125-0.239,22.266-0.318,33.407
				c-0.207,10.648,1.798,21.232,0.812,31.879c-0.239,6.653-0.605,14.388-6.064,19.051c-4.982,3.263-10.791-0.239-15.772-1.576
				c-9.359-3.629-19.72-3.708-28.792-8.037c-11.635-5.825-22.823-12.621-34.442-18.367c-2.722,5.093-3.199,10.95-3.788,16.584
				c7.783,5.316,16.457,9.12,24.733,13.656c6.446,3.311,12.589,7.56,19.831,9.104c8.038,1.814,16.282,2.96,24.081,5.841
				c4.615,1.528,9.056,3.867,13.958,4.584c5.412-1.273,10.616-3.692,15.359-6.637c4.679-7.942,8.26-16.95,7.926-26.34
				c1.305-21.741-3.279-43.466-0.764-65.175c0.573-5.443,6.573-7.512,10.52-10.266c4.648-3.677,8.419,2.817,12.414,4.695
				c19.783,11.603,41.54,19.258,62.756,27.757c8.229,1.798,16.839,3.501,25.322,2.738c5.555-2.563,10.727-6.303,14.849-10.855
				c2.737-24.287-2.594-48.702-0.414-73.053c1.13-8.133-5.968-15.104-3.629-23.205c1.337-5.666,6.079-9.565,10.027-13.528
				c8.165-7.337,20.134-6.398,29.985-3.693c8.133,3.295,16.075,7.098,24.303,10.266c13.99,5.38,26.293,14.165,39.678,20.786
				c8.165,2.722,17.014,2.18,25.529,2.992c2.658,0.493,3.597-2.865,5.077-4.488c4.074-7.178,10.011-13.274,13.242-20.913
				c0.509-6.891-0.255-13.831-0.605-20.706c-0.748-19.019-13.083-36.256-9.884-55.609c2.037-5.539,4.282-11.316,8.229-15.788
				c4.615-3.517,9.422-8.26,15.724-7.767c15.407-0.43,30.813,0.859,46.124,2.594c13.942,2.021,27.312,7.703,41.572,7.449
				c11.141,0.239,22.346,0.286,33.487-0.812c2.69-0.477,6.366-0.255,7.687-3.342c4.823-8.801,10.409-17.396,13.688-26.913
				c0.302-10.393-2.165-20.659-2.976-31.004c-1.209-11.3-3.804-22.903-0.652-34.139c1.528-5.3,1.401-12.207,7.003-15.104
				c5.586-3.008,10.568-9.772,17.603-7.942c8.229,1.767,16.473,3.438,24.781,4.998c9.295,1.751,18.112,5.634,27.582,6.716
				c0.111-5.73,0.127-11.475,0.159-17.205c-17.412-6.159-35.571-9.709-53.652-13.115
				C1785.845,1161.272,1780.163,1159.521,1775.977,1163.262z"/>
			<path fill="#FDFD05" stroke="#FDFD05" stroke-width="0.0938" d="M1775.977,1163.262c4.186-3.74,9.868-1.989,14.834-1.178
				c18.08,3.406,36.24,6.955,53.652,13.115c-0.032,5.73-0.048,11.475-0.159,17.205c-9.47-1.082-18.287-4.966-27.582-6.716
				c-8.308-1.56-16.552-3.231-24.781-4.998c-7.035-1.83-12.016,4.934-17.603,7.942c-5.602,2.897-5.475,9.804-7.003,15.104
				c-3.151,11.236-0.557,22.839,0.652,34.139c0.812,10.345,3.279,20.611,2.976,31.004c-3.279,9.518-8.865,18.112-13.688,26.913
				c-1.321,3.088-4.997,2.865-7.687,3.342c-11.141,1.098-22.346,1.051-33.487,0.812c-14.26,0.255-27.63-5.427-41.572-7.449
				c-15.311-1.735-30.717-3.024-46.124-2.594c-6.302-0.493-11.109,4.25-15.724,7.767c-3.947,4.472-6.191,10.25-8.229,15.788
				c-3.199,19.354,9.136,36.59,9.884,55.609c0.35,6.876,1.114,13.815,0.605,20.706c-3.231,7.64-9.167,13.735-13.242,20.913
				c-1.48,1.623-2.419,4.982-5.077,4.488c-8.515-0.812-17.364-0.271-25.529-2.992c-13.385-6.621-25.688-15.406-39.678-20.786
				c-8.228-3.167-16.17-6.971-24.303-10.266c-9.852-2.706-21.82-3.645-29.985,3.693c-3.947,3.963-8.69,7.862-10.027,13.528
				c-2.34,8.101,4.759,15.072,3.629,23.205c-2.181,24.351,3.151,48.766,0.414,73.053c-4.122,4.552-9.295,8.292-14.849,10.855
				c-8.483,0.764-17.094-0.939-25.322-2.738c-21.215-8.499-42.973-16.154-62.756-27.757c-3.995-1.878-7.767-8.372-12.414-4.695
				c-3.947,2.753-9.947,4.823-10.52,10.266c-2.515,21.709,2.069,43.434,0.764,65.175c0.334,9.39-3.247,18.399-7.926,26.34
				c-4.743,2.944-9.947,5.364-15.359,6.637c-4.902-0.716-9.342-3.056-13.958-4.584c-7.799-2.881-16.043-4.027-24.081-5.841
				c-7.242-1.544-13.385-5.793-19.831-9.104c-8.276-4.536-16.95-8.34-24.733-13.656c0.589-5.634,1.066-11.491,3.788-16.584
				c11.618,5.746,22.807,12.542,34.442,18.367c9.072,4.329,19.433,4.409,28.792,8.037c4.981,1.337,10.791,4.838,15.772,1.576
				c5.459-4.663,5.825-12.398,6.064-19.051c0.987-10.648-1.019-21.232-0.812-31.879c0.08-11.141-0.494-22.282,0.318-33.407
				c0.446-3.852,0.366-8.706,4.186-10.966c7.799-5.507,15.821-10.759,23.826-16.027c5.952,3.947,11.252,8.77,16.95,13.099
				c5.65,4.361,12.605,6.462,18.908,9.724c8.627,4.488,17.953,7.417,26.914,11.205c8.308,3.422,16.902,6.971,26.086,6.86
				c3.327,0.35,6.144-1.798,9.009-3.279c1.528-21.12-2.897-42.129-1.13-63.217c0.701-7.353-3.836-13.672-5.109-20.659
				c1.655-9.215,4.266-19.051,11.507-25.577c5.443-6.716,13.497-10.218,21.2-13.64c9.645,0.016,20.006-0.859,28.967,3.533
				c12.16,5.395,24.622,10.122,36.638,15.868c8.34,4.218,16.266,9.231,24.463,13.735c5.157,3.056,11.38,2.117,17.141,2.276
				c3.008-4.791,6.844-9.072,9.454-14.133c1.05-12.796-1.528-25.513-5.682-37.561c-4.154-11.793-5.729-24.367-5.125-36.813
				c1.353-6.446,5.204-12.016,7.83-18.001c3.04-7.846,11.523-10.854,17.714-15.709c3.167-2.722,7.48-2.292,11.427-2.371
				c22.568-0.239,45.471,0.462,67.339,6.653c16.934,5.029,34.807,3.374,52.22,2.849c3.883-6.175,7.783-12.542,10.043-19.529
				c-0.334-18.128-4.87-36.017-4.997-54.161c1.592-9.82,3.947-19.624,7.067-29.078
				C1761.637,1172.111,1769.181,1168.18,1775.977,1163.262 M1701.475,1282.279c13.337,1.687,26.913,1.719,40.298,0.271
				C1728.468,1280.545,1714.86,1281.866,1701.475,1282.279z"/>
			<path fill="#C55B11" stroke="#C55B11" stroke-width="0.0938" d="M1808.222,1289.378c22.537-16.218,44.405-34.664,58.904-58.697
				c2.769,21.82,2.101,44.612-6.064,65.286c-4.536,10.759-9.868,21.359-17.651,30.16c-6.86,8.674-15.979,15.056-25.051,21.168
				c-126.244,84.895-252.376,169.9-378.603,254.811c-11.38,7.305-22.011,15.995-34.664,21.088
				c-31.831,13.226-69.17,8.531-98.709-8.34c-3.263-2.037-7.003-3.135-10.791-2.578c27.741-2.753,53.318-15.343,76.682-29.906
				c23.603-14.993,46.347-31.274,69.886-46.394c14.468-10.632,29.826-19.942,44.532-30.24
				C1593.981,1433.765,1700.966,1361.365,1808.222,1289.378z"/>
			<path fill="#F5DB35" stroke="#F5DB35" stroke-width="0.0938" d="M1701.475,1282.279c13.385-0.414,26.993-1.735,40.298,0.271
				C1728.389,1283.998,1714.813,1283.967,1701.475,1282.279z"/>
		</g>
		<g>
			<path fill="#F7C51E" stroke="#F7C51E" stroke-width="0.0938" d="M2079.756,1067.659c12.462-2.801,25.656,1.528,37.784-3.167
				c3.438-1.066,7.098-0.43,10.679-0.239c-1.241,11.825,2.292,23.317,2.451,35.062c18.781,1.003,37.656,0.111,56.485,0.382
				c0.748,15.661-0.748,31.434-0.112,47.158c0.668,8.467-2.515,16.712-1.432,25.147c10.711,0.589,21.422-0.048,32.166,0.016
				c0.032,0.812,0.096,2.451,0.143,3.263c-1.114,0.175-3.342,0.525-4.456,0.684c-10.95-1.273-23.078,2.308-32.882-4.027
				c3.645-21.948,0.573-44.246,3.008-66.273c-15.438-0.875-31.02-1.496-46.379,0.271c-0.43,7.114-0.668,14.26-0.254,21.391
				c-0.064,8.356,0.334,16.711,0.318,25.067c-0.859,0.175-2.578,0.509-3.438,0.684c-1.353-0.971-2.658-1.942-3.899-2.897
				c0.334-27.439-3.263-54.734-5.045-82.062c-14.037-0.159-28.123,0.207-41.874,3.199c1.91,21.454,3.899,42.893,5.809,64.347
				c0.334,9.008,2.499,17.873,2.228,26.929c-0.636,2.228-1.273,4.456-1.75,6.716c-0.032-11.205-2.976-22.139-3.056-33.359
				c-1.273-9.327-0.127-18.971-2.801-28.075c-2.674-7.64-0.334-15.9-2.372-23.651
				C2079.517,1078.848,2079.469,1073.214,2079.756,1067.659z"/>
			<path fill="#FEFE01" stroke="#FEFE01" stroke-width="0.0938" d="M2083.018,1071.32c13.751-2.992,27.837-3.358,41.874-3.199
				c1.783,27.327,5.38,54.623,5.045,82.062c0.541,7.544,3.104,14.865,2.562,22.505c-1.002,12.16,2.515,24.081,2.069,36.24
				c0.987,18.653,3.995,37.577,0.653,56.182c-8.022,1.098-17.237-2.626-24.224,2.563c-1.066-1.114-2.053-2.228-2.976-3.358
				c-4.091-17.587-8.085-35.206-11.635-52.904c-2.738-16.17-2.133-32.723-5.332-48.814c0.271-9.056-1.894-17.921-2.228-26.929
				C2086.917,1114.213,2084.928,1092.774,2083.018,1071.32z"/>
			<path fill="#FFFF01" stroke="#FFFF01" stroke-width="0.0938" d="M2137.211,1105.937c15.359-1.767,30.941-1.146,46.379-0.271
				c-2.435,22.027,0.636,44.325-3.008,66.273c-0.525,9.724,0.271,19.497-0.525,29.221c-0.43,13.751-2.594,27.407-2.371,41.19
				c0,13.242,0.652,26.547-1.401,39.694c-1.687,10.727-1.034,21.598-0.557,32.404c0.286,3.04-0.971,5.825-2.308,8.451
				c-10.95-9.788-20.802-20.929-27.757-33.932c-2.562-7.289-4.568-14.913-4.233-22.712c0.143-18.574-0.064-37.131-1.576-55.641
				c-0.414-23.253-0.382-46.506-0.717-69.743c-0.27-4.584-1.368-9.056-2.18-13.544
				C2136.543,1120.197,2136.781,1113.051,2137.211,1105.937z"/>
			<path fill="#FBCE71" stroke="#FBCE71" stroke-width="0.0938" d="M2083.448,1107.878c2.674,9.104,1.528,18.749,2.801,28.075
				c0.08,11.221,3.024,22.155,3.056,33.359c-0.032,0.637-0.112,1.894-0.143,2.531c-0.844,0.159-2.515,0.493-3.358,0.653
				l-0.175-1.544c-0.732-7.337-2.133-14.595-3.311-21.868c4.568-2.833,2.849-8.578,2.594-13.003
				C2083.559,1126.739,2082.939,1117.3,2083.448,1107.878z"/>
			<path fill="#F5CC03" stroke="#F5CC03" stroke-width="0.0938" d="M2360.286,1140.299c-0.016-9.374,0.462-18.733,1.194-28.075
				c5.013,3.31,11.205,2.085,16.902,2.483c12.94,0.573,25.895,1.082,38.866,0.493c-0.207,5.968-1.417,11.984-0.255,17.921
				c5.81,0.509,11.141,3.406,17.03,3.708c11.491,0.462,21.741,6.685,33.232,7.433c-2.229,7.862-5.952,15.215-8.053,23.125
				c-1.544,5.555-3.597,10.95-6.08,16.123c-3.979,8.069-6,16.902-9.677,25.083c-4.059,9.167-5.825,19.163-10.043,28.266
				c-3.454,8.786-8.467,17.396-8.053,27.136c-2.515,0.223-4.997,0.477-7.385,0.78c6.143-15.056,10.87-30.638,16.823-45.774
				c5.316-13.831,10.266-27.805,15.247-41.763c3.327-9.661,7.735-18.924,10.313-28.839c-7.656-4.743-16.823-4.902-25.29-7.067
				c-7.671-1.926-15.279-4.09-23.03-5.57c-4.727,9.836-5.252,20.945-8.611,31.227c-7.417,32.563-16.87,64.618-23.396,97.372
				c-1.528,0.462-2.976,0.971-4.377,1.496c-1.56,3.883-3.342,7.656-5.045,11.459c2.228-12.414,7.051-24.16,9.47-36.527
				c8.037-33.28,17.427-66.241,24.367-99.76c1.624-7.862,7.273-14.117,8.865-21.995c-9.899-0.716-19.879,0.318-29.683-1.257
				c-5.825-0.987-11.698-1.401-17.555-1.13c-0.684,8.642-1.814,17.237-2.642,25.863c-1.035,13.64,0.096,27.327-0.478,40.999
				c-0.35,7.385-1.48,14.738-1.671,22.139c-0.525,13.21,0.796,26.484-0.748,39.662c-2.149,15.836-1.226,31.847-0.971,47.763
				c2.196-1.926,4.44-3.836,6.605-5.841c-3.549,6.876-8.515,12.844-12.717,19.306c-4.027,6.318-9.979,10.982-15.534,15.868
				c2.164-13.067-2.403-25.783-3.963-38.611c-2.244-16.664-4.616-33.312-7.576-49.864c-1.958-16.934-5.969-33.566-7.48-50.548
				c-6.605,20.69-2.037,42.575-4.091,63.822c-2.563,23.237-1.194,46.617-1.592,69.95c-0.143,5.698,0.032,11.412,0.414,17.109
				c1.257,0.43,3.804,1.257,5.077,1.671c-3.692,2.085-7.528,3.868-11.316,5.666c2.642-28.25-0.51-56.74,2.148-84.99
				c1.337-15.327,1.847-30.717,1.56-46.092c-0.35-10.473,0.717-21.041-1.146-31.418c-5.077-0.095-10.122,0.032-15.136,0.382
				c-3.374,10.377-4.265,21.311-6.239,31.991c-6.669,35.031-12.86,70.141-18.924,105.283c-2.164,11.077-4.854,22.202-4.01,33.566
				c2.674,0.398,5.395,0.828,8.197,1.162c-11.809,2.276-24.144,2.451-35.938,0.079c6.732-0.493,13.767,0.382,20.34-1.623
				c3.326-10.727,3.677-22.123,6.096-33.073c8.928-44.437,16.059-89.192,24.192-133.772c3.772-19.147,7.305-38.341,10.17-57.631
				c-10.536-1.114-21.056-2.897-31.672-2.69c-10.425,0.255-20.722-2.037-31.131-1.369c-0.939,7.974-2.785,15.836-3.183,23.858
				c-0.143,15.454-2.371,30.765-2.419,46.203c-2.18,14.547-0.557,29.38-3.326,43.848c-1.385,8.642-0.78,17.412-0.812,26.134
				c-0.016,17.507,0.048,35.015-0.032,52.538c-0.159,11.619,0.828,23.333-1.13,34.855c-2.642-0.684-5.252-1.225-7.799-1.894
				c1.051-0.573,3.151-1.751,4.218-2.34c1.13-9.645,0.414-19.37,0.541-29.046c0.032-29.715-0.095-59.413,0.271-89.128
				c-0.35-16.775,2.212-33.487,1.273-50.278c-1.91-0.302-3.772-0.589-5.571-0.875c-0.047-0.812-0.111-2.451-0.143-3.263
				c2.976-0.207,6.016-0.398,9.088-0.541c3.677-12.239-1.305-25.529,3.279-37.609c1.719-5.188,0.923-10.775,1.385-16.154
				c12.351-1.003,24.717,0.7,37.116,0.398c11.905-0.462,23.3,3.613,35.221,3.406c-0.493,6.064-1.528,12.08-3.072,17.985
				c-2.196,7.926-1.385,16.393-4.027,24.224c-1.018,2.849-1.432,5.857-1.448,8.881c5.459,0.7,10.998,0.716,16.552,0.509
				c4.409-10.091,3.375-21.279,3.533-31.991C2330.349,1140.776,2345.421,1142.288,2360.286,1140.299 M2320.067,1147.254
				c0.764,10.648-2.658,20.977-2.149,31.577c11.045-0.096,22.012-2.037,32.898-3.868c2.801-0.875,7.497-0.907,7.719-4.838
				c0.828-7.576,0.207-15.231,0.302-22.839C2345.914,1146.617,2332.958,1146.633,2320.067,1147.254 M2341.712,1181.25
				c-5.713,0.955-11.459,1.607-17.109,2.737c-0.716,8.006,1.719,15.773,2.594,23.667c0.971,11.173,3.963,22.011,5.093,33.168
				c3.295,16.377,4.647,33.041,7.751,49.45c1.48,7.576,1.178,15.693,4.902,22.68c6.669-4.329,9.359-12.653,9.104-20.292
				c0.334-15.215-0.891-30.574,1.783-45.63c1.002-7.894,0.334-15.852,0.462-23.778c-0.159-14.292,0.604-28.601-0.493-42.877
				C2351.119,1178.385,2346.344,1180.47,2341.712,1181.25z"/>
			<path fill="#F7C755" stroke="#F7C755" stroke-width="0.0938" d="M2361.48,1112.223c10.345-2.149,20.897-0.255,31.354,0.111
				c6.812,0.334,13.672-0.255,20.531,0.016c2.021-0.191,3.311,0.764,3.884,2.849c-12.971,0.589-25.927,0.08-38.866-0.493
				C2372.685,1114.308,2366.493,1115.534,2361.48,1112.223z"/>
			<path fill="#FEFE02" stroke="#FEFE02" stroke-width="0.0938" d="M2366.063,1116.648c5.857-0.271,11.73,0.143,17.555,1.13
				c9.804,1.576,19.783,0.541,29.683,1.257c-1.592,7.878-7.241,14.133-8.865,21.995c-6.939,33.519-16.33,66.48-24.367,99.76
				c-2.419,12.367-7.242,24.112-9.47,36.527c-1.385,3.358-2.737,6.732-4.44,9.916c-2.165,2.005-4.409,3.915-6.605,5.841
				c-0.255-15.916-1.178-31.927,0.971-47.763c1.544-13.178,0.223-26.452,0.748-39.662c0.191-7.401,1.321-14.754,1.671-22.139
				c0.573-13.672-0.557-27.359,0.478-40.999C2364.249,1133.885,2365.379,1125.29,2366.063,1116.648z"/>
			<path fill="#FEFE01" stroke="#FEFE01" stroke-width="0.0938" d="M2235.888,1121.407c10.409-0.668,20.707,1.623,31.131,1.369
				c10.616-0.207,21.136,1.576,31.672,2.69c-2.865,19.29-6.398,38.484-10.17,57.631c-8.133,44.58-15.263,89.335-24.192,133.772
				c-2.419,10.95-2.769,22.346-6.096,33.073c-6.573,2.005-13.608,1.13-20.34,1.623c-4.409-0.557-8.722-1.416-12.907-2.722
				c1.958-11.523,0.97-23.237,1.13-34.855c0.08-17.523,0.016-35.031,0.032-52.538c0.032-8.722-0.573-17.491,0.812-26.134
				c2.769-14.467,1.146-29.301,3.326-43.848c0.048-15.438,2.276-30.749,2.419-46.203
				C2233.103,1137.243,2234.95,1129.38,2235.888,1121.407z"/>
			<path fill="#F8CB02" stroke="#F8CB02" stroke-width="0.0938" d="M2136.957,1127.327c0.812,4.488,1.91,8.961,2.18,13.544
				c0.335,23.237,0.303,46.49,0.717,69.743c1.512,18.51,1.719,37.068,1.576,55.641c-0.334,7.799,1.671,15.422,4.233,22.712
				c-4.743-7.051-7.91-14.993-10.616-22.998l0.175-0.859c3.342-18.605,0.334-37.529-0.653-56.182
				c0.446-12.16-3.072-24.08-2.069-36.24c0.541-7.64-2.021-14.961-2.562-22.505c1.241,0.955,2.546,1.926,3.899,2.897
				c0.859-0.175,2.578-0.509,3.438-0.684C2137.291,1144.039,2136.893,1135.683,2136.957,1127.327z"/>
			<path fill="#F3C517" stroke="#F3C517" stroke-width="0.0938" d="M2063.251,1137.37c5.507-1.305,10.918-3.867,16.743-3.04
				c0.557,4.95,1.464,9.836,2.323,14.754c1.178,7.274,2.579,14.531,3.311,21.868c-1.305-1.082-2.547-2.181-3.756-3.263
				c-1.719-9.151-3.597-18.303-6.239-27.248c-10.122,0.08-19.465,4.265-29.03,6.955c5.141,25.608,11.651,50.93,16.712,76.555
				c-0.064,4.106-0.35,8.197-0.366,12.319c-3.454-2.276-2.355-7.226-3.74-10.664c-3.485-10.266-4.313-21.136-6.748-31.64
				c-2.976-16.696-9.326-32.627-11.013-49.578C2048.64,1141.874,2055.786,1139.137,2063.251,1137.37z"/>
			<path fill="#FEFE02" stroke="#FEFE02" stroke-width="0.0938" d="M2412.028,1135.763c7.751,1.48,15.359,3.645,23.03,5.57
				c8.467,2.165,17.635,2.324,25.29,7.067c-2.578,9.916-6.987,19.178-10.313,28.839c-4.981,13.958-9.931,27.932-15.247,41.763
				c-5.952,15.136-10.679,30.717-16.823,45.774c-5.65,0.637-11.555-0.509-16.918,1.592c-0.478,0.159-1.417,0.462-1.894,0.621
				c-6.016-2.642-12.685-3.088-19.131-2.626c6.526-32.755,15.979-64.809,23.396-97.372
				C2406.776,1156.708,2407.301,1145.599,2412.028,1135.763z"/>
			<path fill="#FEFE02" stroke="#FEFE02" stroke-width="0.0938" d="M2046.603,1147.397c9.565-2.69,18.908-6.876,29.03-6.955
				c2.642,8.945,4.52,18.096,6.239,27.248c1.655,11.173,5.3,21.916,7.083,33.073c1.496,9.231,4.313,18.192,6.064,27.375
				c2.069,11.65,6.175,22.935,6.478,34.855c-9.374,0.589-19.433,1.862-28.298-1.799c-4.902-11.889-5.507-25.115-9.884-37.243
				C2058.253,1198.327,2051.744,1173.005,2046.603,1147.397z"/>
			<path fill="#FEFD02" stroke="#FEFD02" stroke-width="0.0938" d="M2320.067,1147.254c12.891-0.621,25.847-0.637,38.77,0.032
				c-0.095,7.608,0.525,15.263-0.302,22.839c-0.223,3.931-4.918,3.963-7.719,4.838c-10.886,1.83-21.852,3.772-32.898,3.868
				C2317.409,1168.231,2320.831,1157.901,2320.067,1147.254z"/>
			<path fill="#F6CB03" stroke="#F6CB03" stroke-width="0.0938" d="M2091.055,1162.597c3.199,16.091,2.594,32.643,5.332,48.814
				c3.549,17.698,7.544,35.317,11.635,52.904c-13.56,1.003-27.136,0.318-40.681,0.159c0.494-9.709-4.297-18.59-4.393-28.203
				c0.016-4.122,0.302-8.213,0.366-12.319c4.377,12.128,4.982,25.354,9.884,37.243c8.865,3.661,18.924,2.387,28.298,1.799
				c-0.302-11.921-4.409-23.205-6.478-34.855c-1.75-9.183-4.568-18.144-6.064-27.375c-1.783-11.157-5.427-21.9-7.083-33.073
				c1.209,1.082,2.451,2.181,3.756,3.263l0.175,1.544c0.573,5.029,0.907,11.396,6.525,13.449c0.159-4.934-0.955-9.724-3.167-14.101
				c0.032-0.637,0.112-1.894,0.143-2.531C2089.782,1167.053,2090.419,1164.825,2091.055,1162.597z"/>
			<path fill="#F5C61C" stroke="#F5C61C" stroke-width="0.0938" d="M2085.803,1172.496c0.843-0.159,2.514-0.493,3.358-0.653
				c2.212,4.377,3.326,9.167,3.167,14.101C2086.71,1183.892,2086.376,1177.526,2085.803,1172.496z"/>
			<path fill="#F6CE02" stroke="#F6CE02" stroke-width="0.0938" d="M2180.056,1201.16c0.796-9.724,0-19.497,0.525-29.221
				c9.804,6.334,21.932,2.753,32.882,4.027c-9.359,2.037-18.972,1.194-28.426,1.767c-0.812,14.499,0.621,29.078-1.289,43.53
				c-1.655,12.271-0.764,24.669-0.859,37.004c-0.048,10.107-1.926,20.118-1.894,30.24c-0.016,13.385,0.144,26.77-0.191,40.155
				c-2.547-1.862-5.046-3.708-7.385-5.761c1.337-2.626,2.594-5.411,2.308-8.451c-0.478-10.807-1.13-21.677,0.557-32.404
				c2.053-13.146,1.401-26.452,1.401-39.694C2177.462,1228.567,2179.627,1214.912,2180.056,1201.16z"/>
			<path fill="#FEFE01" stroke="#FEFE01" stroke-width="0.0938" d="M2213.464,1175.966c1.114-0.159,3.342-0.509,4.456-0.684
				c1.799,0.286,3.661,0.573,5.571,0.875c0.939,16.791-1.623,33.503-1.273,50.278c-0.366,29.715-0.239,59.413-0.271,89.128
				c-0.127,9.677,0.589,19.401-0.541,29.046c-1.067,0.589-3.167,1.767-4.218,2.34c-12.812-4.488-25.481-10.091-36.383-18.287
				c0.334-13.385,0.175-26.77,0.191-40.155c-0.032-10.122,1.847-20.133,1.894-30.24c0.095-12.335-0.796-24.733,0.859-37.004
				c1.91-14.452,0.478-29.03,1.289-43.53C2194.492,1177.159,2204.105,1178.003,2213.464,1175.966z"/>
			<path fill="#FEFE02" stroke="#FEFE02" stroke-width="0.0938" d="M2294.809,1179.483c5.014-0.35,10.059-0.477,15.136-0.382
				c1.862,10.377,0.796,20.945,1.146,31.418c0.287,15.375-0.223,30.765-1.56,46.092c-2.658,28.25,0.494,56.74-2.148,84.99
				c-10.505,5.268-21.948,8.34-33.551,9.884c-2.801-0.334-5.523-0.764-8.197-1.162c-0.844-11.364,1.846-22.489,4.01-33.566
				c6.064-35.142,12.255-70.252,18.924-105.283C2290.543,1200.794,2291.435,1189.86,2294.809,1179.483z"/>
			<path fill="#FEFE02" stroke="#FEFE02" stroke-width="0.0938" d="M2341.712,1181.25c4.632-0.78,9.406-2.865,14.086-0.875
				c1.098,14.276,0.334,28.585,0.493,42.877c-0.127,7.926,0.541,15.884-0.462,23.778c-2.674,15.056-1.448,30.415-1.783,45.63
				c0.255,7.64-2.435,15.964-9.104,20.292c-3.724-6.987-3.422-15.104-4.902-22.68c-3.104-16.409-4.456-33.073-7.751-49.45
				c-1.13-11.157-4.122-21.995-5.093-33.168c-0.875-7.894-3.311-15.661-2.594-23.667
				C2330.253,1182.857,2335.999,1182.205,2341.712,1181.25z"/>
			<path fill="#FEFD03" stroke="#FEFD03" stroke-width="0.0938" d="M2314.799,1247.205c2.053-21.247-2.515-43.132,4.091-63.822
				c1.512,16.982,5.523,33.614,7.48,50.548c2.96,16.552,5.332,33.2,7.576,49.864c1.56,12.828,6.127,25.545,3.963,38.611
				c-6.096,4.934-12.446,9.581-19.21,13.528c-1.273-0.414-3.82-1.241-5.077-1.671c-0.382-5.698-0.557-11.412-0.414-17.109
				C2313.605,1293.822,2312.236,1270.442,2314.799,1247.205z"/>
			<path fill="#FB712E" stroke="#FB712E" stroke-width="0.0938" d="M2064.779,1266.065c0.637-0.398,1.91-1.194,2.563-1.592
				c13.544,0.159,27.121,0.844,40.681-0.159c0.923,1.13,1.91,2.244,2.976,3.358c0.175,3.167,0.318,6.35,0.621,9.518
				c-1.13-3.374-2.26-6.748-3.247-10.138C2093.841,1266.192,2079.262,1267.338,2064.779,1266.065z"/>
			<path fill="#FDE7E5" stroke="#FDE7E5" stroke-width="0.0938" d="M2110.998,1267.672c6.987-5.189,16.202-1.464,24.224-2.563
				l-0.175,0.859c-6.86,0.271-15.247-3.135-20.658,2.451c6.334,22.584,16.138,44.898,33.136,61.562
				c23.396,26.006,57.122,41.922,91.802,45.28c10.281,1.894,20.849,1.719,31.163-0.064c34.728-3.47,68.199-19.783,91.754-45.583
				c14.706-15.948,24.717-35.667,31.052-56.294c0.35,4.059,0.955,8.085,1.384,12.144c-1.018,3.358-2.132,6.669-3.438,9.916
				c-5.762,11.427-12.303,22.441-19.958,32.707c-21.104,24.908-50.532,42.591-82.444,49.482
				c-40.855,9.916-85.69,1.353-120.466-22.171c-10.727-7.671-21.518-15.629-29.333-26.42c-13.067-14.802-22.346-32.739-27.423-51.79
				C2111.316,1274.023,2111.173,1270.839,2110.998,1267.672z"/>
			<path fill="#FDED6A" stroke="#FDED6A" stroke-width="0.0938" d="M2375.645,1265.858c1.401-0.525,2.849-1.035,4.377-1.496
				c6.446-0.462,13.115-0.016,19.131,2.626c-0.907,6.287-2.467,12.462-4.472,18.478c-0.43-4.058-1.034-8.085-1.384-12.144
				c-0.08-2.435-0.159-4.87-0.175-7.289C2387.279,1265.555,2381.438,1265.524,2375.645,1265.858z"/>
			<path fill="#FE0000" stroke="#FE0000" stroke-width="0.0938" d="M2064.779,1266.065c14.483,1.273,29.062,0.127,43.594,0.987
				c0.987,3.39,2.116,6.764,3.247,10.138c5.077,19.051,14.356,36.988,27.423,51.79c7.814,10.791,18.605,18.749,29.333,26.42
				c34.776,23.523,79.61,32.086,120.466,22.171c31.911-6.891,61.339-24.574,82.444-49.482c4.218-2.021,9.311-3.454,11.825-7.815
				c3.247-5.443,5.857-11.268,8.356-17.094c1.273-2.499,0.08-5.252-0.223-7.799c1.305-3.247,2.419-6.557,3.438-9.916
				c2.005-6.016,3.565-12.191,4.472-18.478c0.478-0.159,1.417-0.462,1.894-0.621c8.642-1.257,17.539-0.923,26.277-0.462
				c-0.716,10.473-3.501,20.595-4.823,30.972c-0.923,8.324-2.578,16.521-4.138,24.733c-12.224,77.08-25.481,153.985-38.023,231.033
				c-1.368,6.971-1.878,14.101-4.027,20.897c-1.782,19.067-6.653,37.672-8.435,56.724c-41.015,1.114-82.094,0.239-123.124,0.286
				c-40.044,0.127-80.072-0.939-120.1-0.732c-3.454-10.886-4.059-22.362-6.176-33.503c-1.719-8.945-2.976-17.969-3.995-26.993
				c-2.531-10.759-3.74-21.741-5.793-32.564c-1.385-12.064-5.125-23.905-4.599-36.113c-0.701,0.748-1.337,1.512-1.926,2.292
				c0.764-8.913-2.292-17.444-3.087-26.229c-2.881-18.017-6.064-35.985-8.436-54.082c-4.17-18.844-5.539-38.134-9.899-56.931
				C2076.206,1332.354,2070.047,1299.281,2064.779,1266.065z"/>
			<path fill="#FA0303" stroke="#FA0303" stroke-width="0.0938" d="M2114.388,1268.42c5.411-5.586,13.799-2.18,20.658-2.451
				c2.706,8.006,5.873,15.948,10.616,22.998c6.955,13.003,16.807,24.144,27.757,33.932c2.339,2.053,4.838,3.899,7.385,5.761
				c10.902,8.197,23.571,13.799,36.383,18.287c2.547,0.668,5.157,1.21,7.799,1.894c4.186,1.305,8.499,2.165,12.907,2.722
				c11.794,2.371,24.128,2.196,35.938-0.079c11.603-1.544,23.046-4.616,33.551-9.884c3.788-1.798,7.623-3.581,11.316-5.666
				c6.764-3.947,13.115-8.594,19.21-13.528c5.555-4.886,11.507-9.549,15.534-15.868c4.201-6.462,9.167-12.43,12.717-19.306
				c1.703-3.183,3.056-6.557,4.44-9.916c1.703-3.804,3.486-7.576,5.045-11.459c5.794-0.334,11.635-0.302,17.476,0.175
				c0.016,2.419,0.095,4.854,0.175,7.289c-6.334,20.627-16.346,40.346-31.052,56.294c-23.555,25.799-57.026,42.113-91.754,45.583
				c-10.313,1.783-20.881,1.958-31.163,0.064c-34.68-3.358-68.406-19.274-91.802-45.28
				C2130.527,1313.318,2120.723,1291.005,2114.388,1268.42z"/>
			<path fill="#ED070F" stroke="#ED070F" stroke-width="0.0938" d="M2371.284,1328.088c7.656-10.266,14.197-21.279,19.958-32.707
				c0.302,2.547,1.496,5.3,0.223,7.799c-2.499,5.825-5.109,11.65-8.356,17.094
				C2380.594,1324.635,2375.501,1326.067,2371.284,1328.088z"/>
		</g>
		<g>
			<path fill="#F2F2F2" stroke="#F2F2F2" stroke-width="0.0938" d="M1015.329,841.703c5.045-1.576,11.65-3.724,15.979,0.605
				c4.854,3.852,5.618,10.552,5.507,16.345c-0.032,3.263-1.48,6.669-4.743,7.783c-13.656,6.303-27.9,11.221-41.588,17.396
				c-10.998,5.204-22.791,8.547-33.55,14.229c-3.661,1.623-3.963,6.032-4.982,9.374c-3.804,16.791-9.518,33.073-13.783,49.737
				c-16.855,60.082-34.298,120.02-50.803,180.198c-10.632,0.095-21.247,0.064-31.863,0c1.623-14.022,7.321-27.073,10.377-40.776
				c17.157-61.403,34.076-122.901,51.328-184.272c3.597-9.008,3.82-19.178,8.913-27.614c3.088-5.921,9.565-8.61,14.802-12.255
				c7.019-4.759,15.216-7.178,22.998-10.409C980.935,854.977,998.06,848.133,1015.329,841.703z"/>
			<path fill="#843C0C" stroke="#843C0C" stroke-width="0.0938" d="M707.694,1142.255c0.175-3.915,4.536-5.013,7.767-4.838
				c46.681-0.032,93.362,0.048,140.042-0.048c10.616,0.064,21.232,0.095,31.863,0c46.187,0.08,92.375,0.048,138.562,0.032
				c5.109,0.095,10.329-0.446,15.422,0.477c3.374,0.653,3.708,4.504,3.884,7.305c0.223,9.183,0.016,18.383-0.111,27.582
				c5.029,0.159,10.106-0.175,15.152,0.477c2.722,1.066,3.884,4.266,3.852,7.019c0.096,7.448,0.223,14.913-0.143,22.346
				c0.095,3.294-3.104,6.032-6.303,5.618c-120.896,0.08-241.808,0-362.719,0.032c-3.629,0.414-7.799-1.767-7.91-5.777
				c-0.414-7.385-0.239-14.818-0.111-22.218c-0.127-3.04,1.464-7.13,5.045-7.194c5.252-0.382,10.52-0.111,15.804-0.286
				C707.216,1162.644,706.707,1152.378,707.694,1142.255z"/>
			<path fill="#8FABDD" stroke="#8FABDD" stroke-width="0.0938" d="M710.368,1210.168c36.192-0.796,72.432-0.111,108.657-0.334
				c53.063-0.016,106.11,0,159.157,0c21.916,0.239,43.864-0.478,65.78,0.334c-0.016,12.016-3.279,23.698-4.934,35.54
				c-4.138,27.63-8.658,55.164-12.924,82.762c-3.326,15.534-4.297,31.434-7.464,46.999c-8.626,52.617-16.727,105.314-24.988,157.995
				c-5.523,32.229-9.788,64.666-15.741,96.815c-15.804,1.035-31.656,0.255-47.477,0.493c-46.681-0.016-93.362,0-140.042-0.016
				c-4.775,0-9.518-0.223-14.229-0.477c-2.403-18.956-6.732-37.625-8.785-56.628c-6.398-36.813-11.81-73.785-17.587-110.694
				c-3.931-19.067-5.682-38.468-9.358-57.583c-7.385-48.654-15.566-97.182-22.982-145.836
				C714.92,1243.114,711.434,1226.752,710.368,1210.168 M860.994,1308.225c-35.015,6.621-64.236,35.954-70.682,71
				c-4.934,25.083,1.019,52.219,16.712,72.496c18.049,24.017,48.782,38.007,78.767,35.269c26.627-2.403,51.758-17.491,66.448-39.853
				c15.088-22.203,19.545-51.328,11.157-76.905c-7.735-26.197-28.25-48.161-53.811-57.742
				C894.338,1306.012,877.133,1305.583,860.994,1308.225z"/>
			<path fill="#FFF3CD" stroke="#FFF3CD" stroke-width="0.0938" d="M860.994,1308.225c16.139-2.642,33.343-2.212,48.591,4.265
				c25.561,9.581,46.076,31.545,53.811,57.742c8.388,25.577,3.931,54.702-11.157,76.905c-14.69,22.362-39.821,37.45-66.448,39.853
				c-29.985,2.738-60.718-11.252-78.767-35.269c-15.693-20.277-21.645-47.413-16.712-72.496
				C796.758,1344.178,825.98,1314.846,860.994,1308.225z"/>
		</g>
		<g>
			<path fill="#FECCFE" stroke="#FECCFE" stroke-width="0.0938" d="M204.781,1152.073c21.821-10.186,45.726-14.563,69.393-17.937
				c9.056-0.668,18.144-0.143,27.232-0.223c6.462-0.095,12.51,2.706,18.955,2.913c16.345-0.032,31.545,6.907,46.585,12.526
				c26.229,9.74,49.625,25.831,70.475,44.278c20.356,19.417,37.832,42.065,50.326,67.339c4.266,8.547,8.133,17.316,11.81,26.15
				c8.913,23.189,14.292,47.843,15.263,72.687c2.26,19.163-0.334,38.421-2.913,57.424c-7.465,52.235-33.407,101.176-70.841,138.133
				c-8.26,8.356-17.953,15.025-27.359,21.964c-20.07,14.674-42.877,25.465-66.83,32.038c-9.581,3.263-19.529,5.141-29.587,6.048
				c-14.022,2.578-28.441,2.928-42.59,1.401c-9.502-1.783-19.258-1.639-28.664-3.884c-17.269-3.629-34.251-9.04-50.023-17.014
				c-16.091-6.716-30.208-17.253-43.911-27.852c-15.804-13.863-31.163-28.632-42.941-46.156
				c-9.868-14.515-19.019-29.619-25.847-45.805c-9.072-22.982-16.902-46.856-18.287-71.7c-2.753-17.444-3.501-35.365-0.509-52.84
				c3.565-45.105,20.054-89.224,47.318-125.4c6.255-7.019,11.825-14.627,18.78-21.009c14.993-17.619,34.028-31.147,53.477-43.418
				C190.854,1158.264,198.192,1155.94,204.781,1152.073 M321.284,1171.044c7.99,5.889,16.743,10.775,23.969,17.651
				c3.581,3.549,9.9,2.531,13.003-1.241c0.7-7.815-7.656-10.966-12.653-15.152c-6.223-4.09-11.396-10.711-18.828-12.414
				C320.584,1159.378,320.536,1166.683,321.284,1171.044 M256.141,1192.706c2.34,5.411,8.563,6.955,13.194,9.788
				c7.91,4.043,15.884,11.698,25.449,7.831c0.207-2.817,1.05-6.048-0.987-8.419c-3.533-3.04-7.767-5.061-11.81-7.273
				c-6.891-3.501-13.178-8.165-20.515-10.775C258.878,1186.148,254.868,1188.615,256.141,1192.706 M220.633,1186.499
				c-8.229,6.128-16.17,12.717-23.476,19.927c-1.751,1.989-4.456,3.915-3.74,6.939c-0.461,4.409,5.284,7.385,8.881,5.077
				c9.199-6.207,17.078-14.022,24.733-21.996C231.28,1192.499,225.742,1183.379,220.633,1186.499 M348.213,1206.218
				c-4.154,1.974-5.539,6.716-7.321,10.568c-2.817,7.083-7.194,13.481-9.645,20.722c-2.212,4.822,3.724,11.412,8.722,8.34
				c4.838-4.679,6.764-11.475,9.9-17.285c2.722-6.287,7.656-12.462,5.968-19.719C354.309,1206.218,350.998,1205.04,348.213,1206.218
				 M311.719,1219.301c-8.579,3.756-17.778,5.968-26.102,10.266c-2.833,1.91-7.289,4.536-5.57,8.579
				c2.133,2.944,6.064,5.586,9.756,3.708c9.438-3.279,18.717-7.003,28.059-10.568c4.043-1.257,3.804-5.634,3.326-9.072
				C319.708,1218.346,315.093,1217.948,311.719,1219.301 M408.582,1240.898c-6.86,2.133-13.624,4.536-20.42,6.812
				c-2.754,1.066-5.905,1.703-7.831,4.122c-0.732,3.39-1.082,7.671,2.387,9.756c7.21,0.923,13.799-3.072,20.515-5.077
				c6.239-2.642,14.706-2.801,18.128-9.645C421.951,1239.991,413.595,1238.209,408.582,1240.898 M157.384,1244.766
				c-3.295,2.562-2.578,9.088,0.127,12.319c5.443,6.748,10.839,13.528,16.441,20.149c1.814,1.767,3.533,4.504,6.478,4.122
				c6.112,0.557,7.91-8.165,4.425-11.937c-4.472-5.141-8.674-10.504-12.621-16.059
				C168.477,1248.92,164.132,1242.426,157.384,1244.766 M260.645,1273.557c-9.534,1.926-18.813,5.3-27.009,10.568
				c-9.104,4.377-15.756,12.764-20.038,21.693c-4.456,7.258-8.038,15.024-12.43,22.346c-4.584,7.242-5.523,15.916-7.926,23.985
				c-3.183,10.807-2.212,22.202-2.021,33.312c1.496,20.181,10.504,38.866,20.961,55.848c6.064,8.101,14.022,14.499,21.757,20.945
				c6.462,4.52,13.974,7.258,20.993,10.807c15.55,7.226,33.041,4.998,49.641,4.854c7.926,0.111,14.849-4.027,22.027-6.764
				c10.202-3.708,18.701-10.743,27.057-17.491c9.804-9.629,17.65-21.152,24.049-33.28c4.059-7.019,4.823-15.247,7.29-22.855
				c2.913-9.088,1.448-18.717,1.83-28.059c0.653-10.473-3.39-20.404-3.82-30.781c-0.78-5.698,0.255-12.176-3.565-16.966
				c-1.13-3.406-2.769-6.669-5.061-9.438c-5.618-6.557-10.536-13.91-17.826-18.781c-18.001-14.006-40.792-19.847-63.042-22.584
				C282.481,1269.467,271.468,1271.648,260.645,1273.557 M397.377,1284.301c-0.016,4.011-0.859,8.929,3.47,11.125
				c13.099,2.578,26.595,7.003,40.012,3.581c-0.287-3.963,0.748-9.04-3.629-11.109c-8.722-2.037-18.048-0.366-26.42-3.852
				C406.433,1282.423,401.817,1283.935,397.377,1284.301 M145.479,1294.741c-6.971,3.406-14.069,6.478-21.47,8.801
				c-4.424,2.149-5.093,7.13-3.501,11.348c7.019,1.576,14.977,1.082,20.913-3.342c5.014-3.804,11.411-4.663,16.918-7.337
				c3.867-3.072,1.639-7.926-0.159-11.459C153.834,1292.497,149.378,1292.672,145.479,1294.741 M453.273,1314.636
				c-7.958,4.361-16.314,7.99-24.224,12.43c-3.31,1.974-7.894,6.032-5.141,10.138c2.021,4.568,8.26,3.04,11.841,1.273
				c8.006-4.186,16.202-8.085,23.969-12.717c4.441-2.276,4.425-8.976,0.207-11.443
				C457.714,1313.968,455.326,1313.729,453.273,1314.636 M115.398,1350.669c-2.244,2.324-3.088,5.284-2.881,8.467
				c7.481,6.048,16.871,8.738,25.37,13.003c4.074,1.91,9.136,4.345,13.497,1.91c2.706-3.374,2.101-9.756-2.387-11.237
				c-7.687-3.151-15.025-6.987-22.441-10.663C123.133,1350.224,119.122,1350.86,115.398,1350.669 M426.264,1370.389
				c-0.923,3.82-1.592,7.735-0.414,11.587c11.077,3.247,20.866-4.488,31.465-6.08c2.387-0.716,5.38-0.398,7.21-2.435
				c2.849-2.451,1.273-6.78,1.894-10.059C452.334,1359.216,439.983,1369.529,426.264,1370.389 M113.759,1407.934
				c-0.971,3.82-0.764,7.719,0.382,11.475c5.746,0.844,11.045,3.501,16.839,4.138c7.433,0.668,14.388,4.44,22.012,2.769
				c1.257-3.74,1.369-7.703-0.271-11.348c-7.417-2.801-15.168-4.17-22.998-5.109
				C124.645,1407.663,119.234,1406.422,113.759,1407.934 M451.586,1414.539c-4.361,6.955-7.226,14.849-11.125,22.123
				c-1.48,4.059-5.3,8.499-2.722,12.876c1.194,2.801,4.297,3.868,6.844,5.141c3.756,0.255,7.242-2.738,8.913-5.952
				c3.724-7.274,7.242-14.674,10.266-22.266c1.273-3.597,1.974-8.419-0.971-11.396
				C459.576,1413.091,454.833,1412.756,451.586,1414.539 M382.05,1434.386c-2.499,2.706-1.607,6.191,0.271,8.929
				c8.706,0.652,17.491,0.414,26.15-0.955c5.093-0.255,10.25-0.78,14.817-3.326c-0.095-2.944-0.095-5.905-0.016-8.833
				c-10.345-2.658-20.818,0.478-31.227,0.557C388.369,1430.693,384.995,1432.396,382.05,1434.386 M177.406,1452.212
				c-9.12,3.231-18.653,5.268-27.566,9.04c-1.608,0.939-4.409,1.639-4.218,3.995c-1.401,5.22,4.95,10.727,9.852,7.91
				c9.422-3.31,19.099-5.889,28.425-9.486c4.234-1.91,3.215-7.385,2.435-11.046C183.422,1451.655,180.318,1450.922,177.406,1452.212
				 M374.745,1481.29c-0.414,2.403-1.671,4.95-0.716,7.385c3.294,5.459,10.25,6.112,15.438,9.008
				c7.974,3.374,16.934,9.9,25.656,4.727c-0.398-2.897,0.605-6.732-2.737-8.133c-7.512-4.472-15.804-7.464-23.571-11.427
				C384.501,1480.366,379.44,1481.162,374.745,1481.29 M158.068,1494.134c-1.114,3.963-1.035,8.101-0.286,12.144
				c13.831,0.446,27.868,2.499,41.604,0.159c1.003-6.35-4.87-12.032-11.014-11.905
				C178.265,1494.309,168.159,1493.672,158.068,1494.134 M217.641,1505.37c-5.427,3.804-6.366,10.934-9.231,16.473
				c-2.658,6.796-7.496,13.449-6.35,21.088c1.783,2.801,5.491,3.199,8.435,2.133c5.284-4.488,6.812-11.603,9.772-17.603
				c2.308-6.271,6.685-12.446,5.3-19.433C224.134,1504.924,220.521,1504.67,217.641,1505.37 M303.474,1527.27
				c-3.39,1.607-5.173,5.539-3.883,9.136c2.371,9.422,3.581,19.162,6.907,28.33c1.257,2.992,4.743,6.207,8.213,4.536
				c2.34-1.671,5.523-3.82,4.409-7.194c-2.435-10.345-4.345-20.881-7.608-31.02C309.872,1528.687,306.482,1524.803,303.474,1527.27
				 M342.85,1535.371c-1.098,3.486-2.642,8.483,1.464,10.664c8.022,4.25,17.396,4.456,25.831,7.608
				c4.313,1.655,8.977,0.637,13.401-0.048c-0.08-2.801-0.08-5.571-0.032-8.356c-6.796-6.112-16.043-6.716-24.606-7.974
				C353.768,1535.18,348.341,1534.193,342.85,1535.371 M254.772,1542.629c-7.719,2.371-16.091,0.493-23.714,3.39
				c-1.958,1.671-2.753,4.218-3.931,6.43c2.212,1.974,4.027,5.332,7.337,5.475c12.064-0.223,23.89-2.833,35.763-4.743
				c1.862-3.868,1.273-7.862-1.018-11.38C264.385,1541.658,259.451,1541.196,254.772,1542.629z"/>
			<path fill="#09ADEE" stroke="#09ADEE" stroke-width="0.0938" d="M321.284,1171.044c-0.748-4.361-0.7-11.666,5.491-11.157
				c7.433,1.703,12.605,8.324,18.828,12.414c4.997,4.186,13.353,7.337,12.653,15.152c-3.103,3.772-9.422,4.791-13.003,1.241
				C338.027,1181.819,329.274,1176.933,321.284,1171.044z"/>
			<path fill="#0AADED" stroke="#0AADED" stroke-width="0.0938" d="M256.141,1192.706c-1.273-4.09,2.737-6.557,5.332-8.849
				c7.337,2.61,13.624,7.274,20.515,10.775c4.043,2.212,8.276,4.234,11.81,7.273c2.037,2.371,1.194,5.602,0.987,8.419
				c-9.565,3.868-17.539-3.788-25.449-7.831C264.703,1199.661,258.48,1198.117,256.141,1192.706z"/>
			<path fill="#F60506" stroke="#F60506" stroke-width="0.0938" d="M220.633,1186.499c5.109-3.12,10.648,6,6.398,9.947
				c-7.656,7.974-15.534,15.788-24.733,21.996c-3.597,2.308-9.343-0.668-8.881-5.077c-0.716-3.024,1.989-4.95,3.74-6.939
				C204.462,1199.215,212.404,1192.626,220.633,1186.499z"/>
			<path fill="#066FBE" stroke="#066FBE" stroke-width="0.0938" d="M348.213,1206.218c2.785-1.178,6.096,0,7.624,2.626
				c1.687,7.258-3.247,13.433-5.968,19.719c-3.135,5.809-5.061,12.605-9.9,17.285c-4.998,3.072-10.934-3.517-8.722-8.34
				c2.451-7.242,6.828-13.64,9.645-20.722C342.675,1212.935,344.059,1208.192,348.213,1206.218z"/>
			<path fill="#833C12" stroke="#833C12" stroke-width="0.0938" d="M311.719,1219.301c3.374-1.353,7.99-0.955,9.47,2.913
				c0.478,3.438,0.716,7.815-3.326,9.072c-9.343,3.565-18.621,7.289-28.059,10.568c-3.692,1.878-7.624-0.764-9.756-3.708
				c-1.719-4.043,2.737-6.669,5.57-8.579C293.941,1225.269,303.14,1223.057,311.719,1219.301z"/>
			<path fill="#F3B287" stroke="#F3B287" stroke-width="0.0938" d="M103.27,1225.588c1.83-3.279,5.491-3.199,8.801-2.833
				c-0.064,0.859-0.191,2.563-0.239,3.406c-27.264,36.176-43.752,80.295-47.318,125.4c-2.992,17.476-2.244,35.397,0.509,52.84
				c1.385,24.844,9.215,48.718,18.287,71.7c6.828,16.186,15.979,31.29,25.847,45.805c11.778,17.523,27.136,32.293,42.941,46.156
				c13.703,10.6,27.821,21.136,43.911,27.852c15.773,7.974,32.755,13.385,50.023,17.014c9.406,2.244,19.163,2.101,28.664,3.884
				c14.149,1.528,28.569,1.178,42.59-1.401c10.059-0.907,20.006-2.785,29.587-6.048c23.953-6.573,46.76-17.364,66.83-32.038
				c9.406-6.939,19.099-13.608,27.359-21.964c37.434-36.956,63.376-85.897,70.841-138.133c2.578-19.003,5.173-38.261,2.913-57.424
				c-0.971-24.844-6.35-49.498-15.263-72.687c1.814-2.865,4.218-5.3,6.987-7.305c11.236,24.447,17.364,51.105,19.926,77.844
				c1.385,8.117,1.066,16.361,1.035,24.542c0.907,21.693-3.04,43.211-7.767,64.284c-7.401,25.561-17.189,50.723-31.768,73.101
				c-8.722,14.643-19.895,27.63-31.306,40.219c-9.311,8.77-19.099,17.078-29.142,24.988
				c-33.805,23.794-73.133,41.174-114.625,44.644c-60.098,6.844-122.36-11.682-169.375-49.609
				c-10.011-9.072-20.659-17.523-29.38-27.9c-16.982-19.863-32.691-41.333-42.543-65.7c-14.07-32.739-22.76-68.231-21.836-104.009
				c-0.684-22.027,2.642-44.007,8.244-65.286C66.012,1283.6,81.943,1252.358,103.27,1225.588z"/>
			<path fill="#F60405" stroke="#F60405" stroke-width="0.0938" d="M408.582,1240.898c5.013-2.69,13.369-0.907,12.78,5.968
				c-3.422,6.844-11.889,7.003-18.128,9.645c-6.716,2.005-13.306,6-20.515,5.077c-3.47-2.085-3.119-6.366-2.387-9.756
				c1.926-2.419,5.077-3.056,7.831-4.122C394.958,1245.434,401.722,1243.031,408.582,1240.898z"/>
			<path fill="#076FBF" stroke="#076FBF" stroke-width="0.0938" d="M157.384,1244.766c6.748-2.34,11.093,4.154,14.849,8.594
				c3.947,5.555,8.149,10.918,12.621,16.059c3.485,3.772,1.687,12.494-4.425,11.937c-2.944,0.382-4.663-2.355-6.478-4.122
				c-5.602-6.621-10.998-13.401-16.441-20.149C154.806,1253.854,154.089,1247.328,157.384,1244.766z"/>
			<path fill="#F3B185" stroke="#F3B185" stroke-width="0.0938" d="M260.645,1273.557c10.823-1.91,21.836-4.09,32.866-2.642
				c22.25,2.738,45.042,8.578,63.042,22.584c7.29,4.87,12.207,12.223,17.826,18.781c2.292,2.769,3.931,6.032,5.061,9.438
				c1.496,5.825,1.894,11.857,1.496,17.857c-7.035-1.958-10.87-8.403-16.091-12.892c-15.247-11.571-33.598-17.842-51.774-23.141
				c-23.555-5.746-48.686-7.035-72.289-0.844c-9.152,2.355-17.491,7.019-26.595,9.518c-0.255-2.149-0.446-4.281-0.589-6.398
				c4.281-8.929,10.934-17.316,20.038-21.693C241.833,1278.857,251.111,1275.483,260.645,1273.557z"/>
			<path fill="#FFFC0C" stroke="#FFFC0C" stroke-width="0.0938" d="M397.377,1284.301c4.441-0.366,9.056-1.878,13.433-0.255
				c8.372,3.485,17.698,1.814,26.42,3.852c4.377,2.069,3.342,7.146,3.629,11.109c-13.417,3.422-26.914-1.003-40.012-3.581
				C396.518,1293.229,397.361,1288.311,397.377,1284.301z"/>
			<path fill="#FFFD0C" stroke="#FFFD0C" stroke-width="0.0938" d="M145.479,1294.741c3.899-2.069,8.356-2.244,12.701-1.989
				c1.798,3.533,4.027,8.388,0.159,11.459c-5.507,2.674-11.905,3.533-16.918,7.337c-5.937,4.425-13.894,4.918-20.913,3.342
				c-1.592-4.218-0.923-9.199,3.501-11.348C131.409,1301.219,138.508,1298.147,145.479,1294.741z"/>
			<path fill="#823C11" stroke="#823C11" stroke-width="0.0938" d="M453.273,1314.636c2.053-0.907,4.441-0.668,6.653-0.318
				c4.218,2.467,4.234,9.167-0.207,11.443c-7.767,4.631-15.964,8.531-23.969,12.717c-3.581,1.767-9.82,3.295-11.841-1.273
				c-2.753-4.106,1.83-8.165,5.141-10.138C436.959,1322.626,445.315,1318.997,453.273,1314.636z"/>
			<path fill="#823C11" stroke="#823C11" stroke-width="0.0938" d="M115.398,1350.669c3.724,0.191,7.735-0.446,11.157,1.48
				c7.417,3.677,14.754,7.512,22.441,10.663c4.488,1.48,5.093,7.862,2.387,11.237c-4.361,2.435-9.422,0-13.497-1.91
				c-8.499-4.265-17.889-6.955-25.37-13.003C112.31,1355.953,113.154,1352.993,115.398,1350.669z"/>
			<path fill="#FFFC0D" stroke="#FFFC0D" stroke-width="0.0938" d="M426.264,1370.389c13.719-0.859,26.07-11.173,40.155-6.987
				c-0.621,3.279,0.955,7.608-1.894,10.059c-1.83,2.037-4.823,1.719-7.21,2.435c-10.6,1.592-20.388,9.327-31.465,6.08
				C424.672,1378.124,425.341,1374.209,426.264,1370.389z"/>
			<path fill="#FFFC0D" stroke="#FFFC0D" stroke-width="0.0938" d="M113.759,1407.934c5.475-1.512,10.886-0.271,15.964,1.926
				c7.83,0.939,15.581,2.308,22.998,5.109c1.639,3.645,1.528,7.608,0.271,11.348c-7.624,1.671-14.579-2.101-22.012-2.769
				c-5.793-0.637-11.093-3.295-16.839-4.138C112.995,1415.653,112.788,1411.754,113.759,1407.934z"/>
			<path fill="#066FBE" stroke="#066FBE" stroke-width="0.0938" d="M451.586,1414.539c3.247-1.783,7.99-1.448,11.205,0.525
				c2.945,2.976,2.244,7.799,0.971,11.396c-3.024,7.592-6.542,14.993-10.266,22.266c-1.671,3.215-5.157,6.207-8.913,5.952
				c-2.546-1.273-5.65-2.34-6.844-5.141c-2.578-4.377,1.241-8.817,2.722-12.876C444.36,1429.388,447.225,1421.494,451.586,1414.539z
				"/>
			<path fill="#07ADEE" stroke="#07ADEE" stroke-width="0.0938" d="M382.05,1434.386c2.945-1.99,6.319-3.693,9.995-3.629
				c10.409-0.08,20.881-3.215,31.227-0.557c-0.079,2.928-0.079,5.889,0.016,8.833c-4.568,2.547-9.724,3.072-14.817,3.326
				c-8.658,1.369-17.444,1.607-26.15,0.955C380.443,1440.577,379.551,1437.092,382.05,1434.386z"/>
			<path fill="#0570BF" stroke="#0570BF" stroke-width="0.0938" d="M177.406,1452.212c2.913-1.289,6.016-0.557,8.929,0.414
				c0.78,3.661,1.798,9.136-2.435,11.046c-9.327,3.597-19.003,6.175-28.425,9.486c-4.902,2.817-11.252-2.69-9.852-7.91
				c-0.191-2.356,2.61-3.056,4.218-3.995C158.753,1457.48,168.286,1455.443,177.406,1452.212z"/>
			<path fill="#F50506" stroke="#F50506" stroke-width="0.0938" d="M374.745,1481.29c4.695-0.127,9.756-0.923,14.069,1.56
				c7.767,3.963,16.059,6.955,23.571,11.427c3.342,1.401,2.34,5.236,2.737,8.133c-8.722,5.173-17.682-1.353-25.656-4.727
				c-5.189-2.897-12.144-3.549-15.438-9.008C373.074,1486.239,374.331,1483.693,374.745,1481.29z"/>
			<path fill="#FFFD0A" stroke="#FFFD0A" stroke-width="0.0938" d="M158.068,1494.134c10.091-0.462,20.197,0.175,30.304,0.398
				c6.143-0.127,12.016,5.555,11.014,11.905c-13.735,2.34-27.773,0.286-41.604-0.159
				C157.034,1502.235,156.954,1498.097,158.068,1494.134z"/>
			<path fill="#F80406" stroke="#F80406" stroke-width="0.0938" d="M217.641,1505.37c2.881-0.7,6.494-0.446,7.926,2.658
				c1.385,6.987-2.992,13.162-5.3,19.433c-2.96,6-4.488,13.115-9.772,17.603c-2.945,1.066-6.653,0.668-8.435-2.133
				c-1.146-7.64,3.692-14.292,6.35-21.088C211.274,1516.304,212.213,1509.174,217.641,1505.37z"/>
			<path fill="#823C13" stroke="#823C13" stroke-width="0.0938" d="M303.474,1527.27c3.008-2.467,6.398,1.417,8.038,3.788
				c3.263,10.138,5.173,20.675,7.608,31.02c1.114,3.374-2.069,5.523-4.409,7.194c-3.47,1.671-6.955-1.544-8.213-4.536
				c-3.326-9.167-4.536-18.908-6.907-28.33C298.302,1532.809,300.084,1528.878,303.474,1527.27z"/>
			<path fill="#FFFD0C" stroke="#FFFD0C" stroke-width="0.0938" d="M342.85,1535.371c5.491-1.178,10.918-0.191,16.059,1.894
				c8.563,1.257,17.81,1.862,24.606,7.974c-0.048,2.785-0.048,5.555,0.032,8.356c-4.425,0.684-9.088,1.703-13.401,0.048
				c-8.435-3.151-17.81-3.358-25.831-7.608C340.208,1543.854,341.752,1538.857,342.85,1535.371z"/>
			<path fill="#08AEED" stroke="#08AEED" stroke-width="0.0938" d="M254.772,1542.629c4.679-1.432,9.613-0.971,14.436-0.828
				c2.292,3.517,2.881,7.512,1.018,11.38c-11.873,1.91-23.698,4.52-35.763,4.743c-3.31-0.143-5.125-3.501-7.337-5.475
				c1.178-2.212,1.974-4.759,3.931-6.43C238.681,1543.122,247.053,1545,254.772,1542.629z"/>
		</g>
	</g>
	<g>
		<g>
			<path fill="#FEF2CD" stroke="#FEF2CD" stroke-width="0.0938" d="M252.901,78.236c5.22-3.135,10.377-9.263,17.109-6.955
				c8.483,1.798,14.292,11.236,12.653,19.608c-1.289,6.414-8.34,8.833-11.364,14.085c1.878,8.674,4.647,17.173,6.128,25.959
				c1.703,9.263,4.934,18.255,5.889,27.662c0.191,2.96-2.61,5.093-4.536,6.971c-7.13,2.96-14.404,5.746-22.075,6.892
				c-1.194-0.366-3.565-1.098-4.759-1.48c-5.077-19.194-7.703-38.898-12.16-58.22c-1.56-7.56-10.711-10.6-11.857-18.367
				c-1.639-7.846,4.234-15.438,11.316-18.144C243.845,74.639,248.508,76.931,252.901,78.236z"/>
			<path fill="#C55B11" stroke="#C55B11" stroke-width="0.0938" d="M278.78,165.566c8.117-3.119,16.027-6.812,23.587-11.093
				c5.714,2.26,13.576,4.027,15.009,11.061c2.483,15.024,1.098,30.319,1.926,45.455c1.862,9.709,5.618,19.083,11.666,26.961
				c7.99,14.881,19.385,27.439,29.364,40.967c4.552,6.525,11.093,11.412,15.152,18.303c5.141,8.372,9.152,17.603,16.107,24.717
				c7.56-12.335,7.751-27.184,11.412-40.808c2.419-8.579,1.512-17.682,3.836-26.277c1.608-3.82,6.382-5.762,10.266-4.265
				c10.457,1.241,17.81,9.645,27.709,12.526c6.175,2.785,12.526,5.252,19.21,6.525c9.295,3.119,19.115,3.358,28.76,4.584
				c5.952,0.589,8.77,6.971,10.886,11.778c-0.987,9.629-7.114,17.603-11.666,25.831c-4.934,9.39-11.857,17.857-14.802,28.171
				c-131.878,0.143-263.787-0.302-395.665,0.239c-1.289-10.743,5.491-19.497,8.626-29.221c2.276-6.255,6.716-11.348,10.441-16.775
				c4.361-5.714,8.006-12.016,13.13-17.109c7.003-6.796,11.921-15.582,19.831-21.47c4.902-3.533,10.282-6.589,16.107-8.308
				c6.35-0.08,12.526,1.926,18.828,2.626c10.075,1.289,20.133,3.74,29.062,8.738c12.86,7.496,25.974,14.611,38.054,23.364
				c8.372-11.205,5.395-26.229,3.39-39.041c-3.486-12.494-8.722-24.447-13.051-36.67c-2.531-7.417-7.608-13.624-10.281-20.929
				c0.271-7.417,8.388-9.565,14.213-11.332c8.913-0.748,18.017,0.525,26.818-1.655C264.376,171.311,271.65,168.526,278.78,165.566z"
				/>
			<path fill="#FFF2CD" stroke="#FFF2CD" stroke-width="0.0938" d="M466.331,182.452c3.167-5.475,9.072-10.25,15.788-9.167
				c6.255,0.064,10.25,5.364,15.12,8.435c5.045,1.894,11.205-0.048,15.82,3.358c8.181,5.491,9.231,18.701,1.735,25.211
				c-3.82,4.17-9.597,4.663-14.738,5.873c-3.295,0.223-3.788,3.915-4.934,6.303c-4.202,12.573-9.215,24.86-13.592,37.37
				c-1.289,3.374-2.387,6.939-4.631,9.82c-4.266,0.748-8.626,0.382-12.876-0.016c-6.685-1.273-13.035-3.74-19.21-6.525
				c5.475-17.507,12.494-34.473,18.685-51.71c1.273-4.17,4.043-8.419,2.769-12.924C465.153,193.259,463.673,187.466,466.331,182.452
				z"/>
			<path fill="#8F5056" stroke="#8F5056" stroke-width="0.0938" d="M49.673,340.511c10.616,0,21.248,0.271,31.863-0.271
				c131.878-0.541,263.787-0.095,395.665-0.239c14.818,1.162,29.683,0.35,44.532,0.509c-10.361,34.84-19.21,70.109-29.428,104.996
				c-8.881,33.55-18.908,66.782-27.502,100.396c-7.958,27.057-15.327,54.273-22.759,81.473c-0.573,2.117-1.464,4.154-3.183,5.571
				c1.719-13.64,6.987-26.452,9.963-39.821c4.44-15.693,8.817-31.386,13.481-46.999c3.772-15.518,8.038-30.908,12.685-46.172
				c11.603-43.259,24.128-86.263,35.81-129.506c2.435-8.849,5.125-17.666,6.414-26.802c-72.13-1.114-144.276-0.462-216.422-0.637
				c-49.864,0.016-99.744-0.016-149.608,0c-32.388,0.064-64.793-0.239-97.165,0.605c4.425,23.842,12.701,46.776,18.574,70.284
				c24.192,85.897,47.636,172.017,71.589,257.978c0.86,3.279,3.231,5.984,6.923,5.3c84.369,0.175,168.754,0.048,253.14,0.08
				c7.21,0.127,14.436,0.064,21.645-0.382c4.441-14.229,6.812-29.094,12.605-42.861c0.907,6.334-1.846,12.319-3.47,18.303
				c-2.61,9.263-4.982,18.59-7.417,27.9c-66.655,0.748-133.358,0.127-200.029,0.334c-27.932-0.191-55.88,0.366-83.78-0.366
				c-17.985-66.719-36.813-133.215-55.084-199.854C75.44,433.793,63.122,387.001,49.673,340.511z"/>
			<path fill="#C10001" stroke="#C10001" stroke-width="0.0938" d="M54.018,343.615c32.373-0.844,64.777-0.541,97.165-0.605
				c49.864-0.016,99.744,0.016,149.608,0c72.146,0.175,144.292-0.478,216.422,0.637c-1.289,9.136-3.979,17.953-6.414,26.802
				c-11.682,43.243-24.208,86.247-35.81,129.506c-4.647,15.263-8.913,30.654-12.685,46.172c-4.663,15.613-9.04,31.306-13.481,46.999
				c-2.976,13.369-8.244,26.181-9.963,39.821l-0.366,1.066c-5.793,13.767-8.165,28.632-12.605,42.861
				c-7.21,0.446-14.435,0.509-21.645,0.382c-84.385-0.032-168.77,0.096-253.14-0.08c-3.692,0.684-6.064-2.021-6.923-5.3
				c-23.953-85.961-47.397-172.081-71.589-257.978C66.719,390.391,58.443,367.457,54.018,343.615 M195.684,436.992
				c-2.483,0.159-5.364,0.509-6.828,2.801c-1.337,4.838-0.653,9.931-0.732,14.881c0.032,32.659-0.318,65.318,0.302,97.977
				c8.165,1.719,16.536,0.923,24.828,1.003c44.023-0.143,88.062-0.032,132.101-0.064c10.552-0.095,21.152,0.557,31.688-0.446
				c2.244-7.703,1.146-15.788,1.337-23.667c-0.08-29.189,0.095-58.379-0.064-87.568c0.637-5.045-5.364-5.905-9.056-5.809
				c-31.306,0-62.628,0-93.935,0C248.779,436.276,222.215,435.512,195.684,436.992z"/>
			<path fill="#FE0000" stroke="#FE0000" stroke-width="0.0938" d="M195.684,436.992c26.531-1.48,53.095-0.716,79.642-0.891
				c31.306,0,62.628,0,93.935,0c3.692-0.095,9.693,0.764,9.056,5.809c0.159,29.189-0.016,58.379,0.064,87.568
				c-0.191,7.878,0.907,15.964-1.337,23.667c-10.536,1.003-21.136,0.35-31.688,0.446c-44.039,0.032-88.078-0.08-132.101,0.064
				c-8.292-0.08-16.664,0.716-24.828-1.003c-0.621-32.659-0.271-65.318-0.302-97.977c0.08-4.95-0.605-10.043,0.732-14.881
				C190.32,437.502,193.201,437.152,195.684,436.992z"/>
		</g>
		<g>
			<path fill="#C05C17" stroke="#C05C17" stroke-width="0.0938" d="M2289.546,184.915c9.167-1.958,18.621-0.828,27.964-1.066
				c11.698,0.111,23.524-0.812,35.063,1.83c19.672,0.78,38.914,5.348,57.981,10.011c16.171,3.613,31.704,9.756,46.331,17.507
				c13.767,6.064,25.783,15.295,37.482,24.606c6.525,6.287,12.08,13.656,16.552,21.55c1.974,3.868,4.234,7.846,4.17,12.351
				c-7.703-9.836-11.602-22.489-21.836-30.319c-1.369,1.512-2.642,3.024-3.852,4.552c-17.285-18.112-40.124-30.113-63.663-38.007
				c-19.592-6.573-39.789-11.189-60.289-13.608c-14.754-2.992-29.826-1.417-44.739-2.037c-11.141,0.064-22.25-0.032-33.344,0.286
				c-32.659,3.088-65.095,10.568-95.208,23.699c-18.096,8.738-35.556,20.038-47.62,36.399c0.127-2.61,0.239-5.22,0.382-7.815
				c-2.531-0.462-4.982-0.907-7.369-1.385c4.329-5.555,10.25-9.438,15.725-13.767c17.236-13.894,38.15-21.916,58.474-30.128
				c17.841-5.22,35.938-9.613,54.416-12.064C2273.805,185.504,2281.827,186.714,2289.546,184.915z"/>
			<path fill="#853C0B" stroke="#853C0B" stroke-width="0.0938" d="M2192.158,216.269c30.112-13.13,62.549-20.611,95.208-23.699
				c11.093-0.318,22.202-0.223,33.344-0.286c14.913,0.621,29.985-0.955,44.739,2.037c20.499,2.419,40.696,7.035,60.289,13.608
				c23.539,7.894,46.378,19.895,63.663,38.007c5.443,7.767,11.093,15.979,12.573,25.577c1.194,10.218,1.003,21.2-4.218,30.383
				c-6.557,14.499-19.481,24.606-32.516,32.977c-2.244,1.21-5.38,3.883-7.019,0.493c7.337-5.666,15.391-11.109,20.054-19.385
				c7.592-11.125,10.632-25.99,5.204-38.675c-5.618-12.557-15.359-23.014-26.818-30.495c-24.749-17.332-54.448-25.577-83.844-30.781
				c-36.368-5.539-73.594-5.109-109.866,0.907c-26.022,5.045-51.917,12.987-74.39,27.343c-11.125,7.146-21.772,15.868-28.043,27.725
				c-3.9,6.621-4.854,14.388-4.966,21.916c-0.7,8.451,1.257,17.571,7.512,23.699c7.401,7.258,14.388,15.009,22.552,21.486
				c-8.96-0.398-15.852-6.796-22.68-11.81c-9.04-7.926-18.398-16.425-22.966-27.789c-3.008-8.499-5.379-17.762-3.199-26.738
				c1.258-7.146,4.329-13.767,7.767-20.102C2156.602,236.307,2174.062,225.007,2192.158,216.269z"/>
			<path fill="#C55B11" stroke="#C55B11" stroke-width="0.0938" d="M2262.951,216.938c36.272-6.016,73.499-6.446,109.866-0.907
				c29.396,5.204,59.095,13.449,83.844,30.781c11.459,7.48,21.2,17.937,26.818,30.495c5.427,12.685,2.387,27.55-5.204,38.675
				c-0.096-0.7-0.271-2.117-0.366-2.817c-6.573,5.013-13.099,10.25-20.627,13.719c-7.067,3.422-15.04,3.549-22.569,5.045
				c-6.669,1.289-13.385,2.435-20.149,2.356c-11.793-0.111-23.714,0.589-35.301-1.814c-9.279-1.942-18.478-4.138-27.614-6.446
				c-9.183-2.292-17.141-7.735-24.446-13.497c-9.963-8.945-7.273-24.813-16.807-33.996c-11.921-12.971-29.667-18.319-46.585-20.643
				c-19.147-4.456-39.025-3.517-58.22-0.064c-12.048,1.623-23.38,6.494-33.55,13.003c-8.149,5.332-13.242,14.149-16.489,23.094
				c0.111-7.528,1.066-15.295,4.966-21.916c6.271-11.857,16.918-20.579,28.043-27.725
				C2211.034,229.925,2236.929,221.983,2262.951,216.938 M2395.99,282.685c-4.664,1.035-9.343,2.165-13.528,4.377
				c-3.979,2.053-7.13,7.974-2.849,11.38c10.425,10.743,27.439,9.9,40.76,5.873c4.409-1.671,10.775-4.663,9.868-10.393
				c-0.446-4.679-4.998-7.305-8.961-8.674C2413.179,282.606,2404.41,280.648,2395.99,282.685z"/>
			<path fill="#C55B11" stroke="#C55B11" stroke-width="0.0938" d="M2493.251,241.384c10.234,7.831,14.133,20.484,21.836,30.319
				c4.282,8.451,5.73,18.637,4.154,27.996c-4.249,12.653-10.313,24.844-19.178,34.887c-7.448,8.626-16.95,15.072-26.261,21.47
				c-10.09,6.891-21.056,12.462-32.516,16.616c-4.457,2.069-11.316,2.96-11.857,8.929c-2.881,13.242-4.791,26.802-9.725,39.487
				c-9.056,23.81-19.194,47.477-33.534,68.629c-9.342,13.337-22.107,23.762-35.317,33.025c-13.353,8.833-29.205,12.589-44.946,13.91
				c-14.499,2.228-27.327-6.637-38.436-14.69c-9.279-7.082-16.887-16.011-25.227-24.096c-11.045-11.475-18.828-25.561-25.179-40.028
				c-9.199-19.258-15.438-39.742-20.881-60.305c-2.435-8.563-2.419-17.778-5.905-26.006c-2.992-2.562-6.701-4.027-10.123-5.793
				c-14.213-6.685-26.945-16.139-38.5-26.675c-11.873-10.87-19.465-25.656-23.444-41.11c-2.021-13.863,1.735-28.282,9.295-39.98
				c2.896-4.966,6.382-9.565,9.072-14.674l0.971,0.175c2.387,0.477,4.838,0.923,7.369,1.385c-0.144,2.594-0.255,5.204-0.382,7.815
				c-3.438,6.334-6.51,12.955-7.767,20.102c-2.18,8.976,0.191,18.239,3.199,26.738c4.568,11.364,13.926,19.863,22.966,27.789
				c6.828,5.013,13.719,11.412,22.68,11.81c9.454,3.31,17.507,9.565,26.786,13.337c12.383,5.077,25.227,9.231,38.548,11.03
				c14.006,1.926,27.773,5.459,41.954,6.223c19.783,1.623,39.821,1.798,59.525-1.21c17.571-2.753,35.349-4.472,52.793-8.165
				c18.86-5.38,36.765-13.91,52.999-24.956c1.639,3.39,4.775,0.716,7.019-0.493c13.035-8.372,25.958-18.478,32.516-32.977
				c5.22-9.183,5.411-20.165,4.218-30.383c-1.48-9.597-7.13-17.81-12.573-25.577
				C2490.609,244.408,2491.883,242.896,2493.251,241.384z"/>
			<path fill="#F4B184" stroke="#F4B184" stroke-width="0.0938" d="M2205.59,257.825c19.195-3.454,39.073-4.393,58.22,0.064
				c16.918,2.324,34.665,7.671,46.585,20.643c9.534,9.183,6.844,25.051,16.807,33.996c7.305,5.761,15.263,11.205,24.446,13.497
				c9.136,2.308,18.335,4.504,27.614,6.446c11.587,2.403,23.508,1.703,35.301,1.814c6.764,0.08,13.48-1.066,20.149-2.356
				c7.529-1.496,15.502-1.623,22.569-5.045c7.528-3.47,14.053-8.706,20.627-13.719c0.095,0.7,0.27,2.117,0.366,2.817
				c-4.663,8.276-12.717,13.719-20.054,19.385c-16.234,11.046-34.139,19.576-52.999,24.956c-17.444,3.692-35.222,5.411-52.793,8.165
				c-19.704,3.008-39.742,2.833-59.525,1.21c-14.181-0.764-27.948-4.297-41.954-6.223c-13.321-1.798-26.165-5.953-38.548-11.03
				c-9.279-3.772-17.332-10.027-26.786-13.337c-8.165-6.478-15.151-14.229-22.552-21.486c-6.255-6.128-8.212-15.247-7.512-23.699
				c3.247-8.945,8.34-17.762,16.489-23.094C2182.21,264.319,2193.542,259.449,2205.59,257.825 M2227.316,284.293
				c-5.236,1.13-10.934,2.34-14.579,6.525c-1.926,2.021-3.947,5.045-2.069,7.751c4.01,6.653,11.952,9.772,19.433,10.361
				c8.642,0.589,17.984,0.812,25.736-3.756c3.199-1.894,6.939-4.393,7.448-8.451c0.159-5.093-4.631-8.388-8.833-10.027
				C2245.825,283.577,2236.324,282.415,2227.316,284.293z"/>
			<path fill="#C55B11" stroke="#C55B11" stroke-width="0.0938" d="M2524.446,298.585c12.892-9.661,28.696-14.595,44.5-16.95
				c14.706-1.162,30.892,2.897,41.699,13.369c9.836,12.414,18.94,26.532,20.914,42.59c2.133,13.831,2.292,28.76-4.361,41.461
				c-3.661,6.716-8.277,12.828-12.781,18.971c-4.632,6.239-11.81,9.613-18.144,13.719c4.918,7.449,8.213,15.772,12.59,23.555
				c3.279,5.825,5.363,12.239,6.812,18.765c1.56,7.48,4.313,14.865,3.804,22.632c-0.398,9.502,0.43,19.035-0.334,28.521
				c-5.029,30.16-19.799,58.809-41.875,80.024c-4.981,5.141-10.313,9.884-15.231,15.04c-4.981,5.252-11.379,8.785-16.838,13.417
				c-6.478,5.539-14.308,9.056-21.327,13.751c-16.154,10.855-34.426,17.842-52.283,25.306c-12.701,4.17-25.147,9.215-38.293,11.825
				c-28.298,8.053-57.583,13.003-86.948,13.672c-11.412,3.756-23.492,1.751-35.222,2.212c-11.332-0.334-22.823,0.971-33.98-1.321
				c-7.974-1.798-16.234-0.032-24.096-2.228c-29.524-3.517-58.666-9.916-87.059-18.669c-16.091-6.605-32.325-12.876-48.097-20.181
				c-25.577-13.528-50.485-29.301-70.491-50.421c-9.947-9.47-18.383-20.468-25.02-32.468c-6.112-7.305-9.04-16.409-12.526-25.099
				c-10.791-29.174-10.202-62.549,2.499-91.006c5.061-14.372,14.038-26.866,23.555-38.612c9.39-13.735,23.078-23.619,35.396-34.553
				c9.804-7.385,20.404-13.703,30.797-20.261c5.634-3.008,11.141-6.923,17.651-7.783c-0.064,3.151-0.096,6.319-0.112,9.47
				c-12.08,6.796-24.256,13.497-35.205,22.027c-11.157,8.897-23.142,17.125-31.784,28.68c-16.775,19.513-30.288,43.036-32.691,69.09
				c-0.653,15.088-1.098,30.638,3.963,45.105c10.011,31.895,32.468,58.443,59.047,78.019c18.892,14.483,40.235,25.29,61.801,35.174
				c32.373,13.226,66.417,22.457,101.097,27.025c16.839,2.578,33.853,4.791,50.946,4.043c23.333-0.637,46.776,1.432,70.013-1.639
				c30.654-3.565,61.18-9.295,90.497-19.162c32.356-10.648,63.615-25.497,90.783-46.235c19.927-14.436,36.511-33.248,48.798-54.559
				c11.889-23.014,17.619-50.039,11.889-75.647c-2.213-13.178-7.688-25.465-14.006-37.115c-1.432-2.196-2.674-4.95-5.236-5.873
				c-6.493,1.21-12.223,4.711-18.446,6.653c-15.391,4.727-30.495,10.425-46.283,13.576c1.305,6.955,5.65,12.748,7.894,19.385
				c3.167,9.295,6.382,18.812,6.382,28.744c0.016,11.953,0.605,24.208-2.992,35.763c-7.735,25.163-23.476,47.652-43.912,64.14
				c-24.574,20.245-53.716,34.442-84.131,43.466c-21.693,6.287-44.087,10.727-66.687,11.619c-8.483,0.939-16.934,2.594-25.481,2.276
				c-9.645,0.159-19.019-2.467-28.601-2.722c-14.515-0.398-28.696-3.724-42.829-6.669c-40.888-8.913-79.945-27.868-110.837-56.278
				c-18.828-19.306-34.505-43.529-37.37-70.889c-1.098-15.024-0.939-30.574,4.44-44.851c6.653-17.985,16.616-35.062,30.813-48.129
				c5.459,6.939,7.783,15.629,12.144,23.205c5.109,9.12,9.979,18.446,16.234,26.882c2.499,3.724,6.096,7.114,6.987,11.698
				c-0.255,6.716-2.149,13.306-1.926,20.07c-1.464,24.956,13.115,48.129,31.815,63.488c24.24,19.735,54.48,31.481,85.324,35.619
				c7.496,1.241,14.992,2.674,22.664,2.578c12.876-0.159,25.927,0.939,38.659-1.862c15.614-1.958,31.131-5.029,45.853-10.807
				c25.529-9.947,50.803-24.972,65.429-48.909c9.533-14.467,13.926-32.5,10.6-49.625c-0.86-5.586-3.518-12,0.652-16.95
				c13.274-18.685,26.897-37.736,34.426-59.604c1.894-5.141,8.436-4.425,12.908-5.125c24.176-3.088,48.734-3.056,72.751-7.767
				c16.521-3.104,30.765-19.035,29.524-36.288c0.939-14.738-7.878-28.537-19.958-36.32c-9.438-3.47-19.799-2.881-29.572-1.751
				c-14.579,3.963-25.751,14.881-35.667,25.704c-2.117,3.486-3.756,7.194-5.252,10.95c-3.772,1.735-7.814,2.531-11.825,1.512
				c0.923-7.64-0.08-16.871,6.207-22.521c9.836-9.056,19.832-18.892,32.93-22.966c7.401-2.722,15.231-3.708,23.046-4.791
				C2559.891,300.607,2541.874,297.805,2524.446,298.585z"/>
			<path fill="#F4B183" stroke="#F4B183" stroke-width="0.0938" d="M2395.99,282.685c8.419-2.037,17.189-0.08,25.29,2.562
				c3.963,1.369,8.515,3.995,8.961,8.674c0.907,5.73-5.459,8.722-9.868,10.393c-13.321,4.027-30.335,4.87-40.76-5.873
				c-4.281-3.406-1.13-9.327,2.849-11.38C2386.648,284.85,2391.327,283.72,2395.99,282.685z"/>
			<path fill="#C45B12" stroke="#C45B12" stroke-width="0.0938" d="M2227.316,284.293c9.008-1.878,18.51-0.716,27.136,2.403
				c4.202,1.639,8.992,4.934,8.833,10.027c-0.509,4.059-4.25,6.557-7.448,8.451c-7.751,4.568-17.094,4.345-25.736,3.756
				c-7.481-0.589-15.423-3.708-19.433-10.361c-1.878-2.706,0.143-5.73,2.069-7.751
				C2216.381,286.633,2222.079,285.423,2227.316,284.293z"/>
			<path fill="#843C0C" stroke="#843C0C" stroke-width="0.0938" d="M2118.213,297.949c3.979,15.454,11.571,30.24,23.444,41.11
				c11.555,10.536,24.287,19.99,38.5,26.675c3.422,1.767,7.13,3.231,10.123,5.793c3.485,8.228,3.469,17.444,5.905,26.006
				c5.443,20.563,11.682,41.047,20.881,60.305c6.35,14.467,14.133,28.553,25.179,40.028c8.34,8.085,15.948,17.014,25.227,24.096
				c11.109,8.053,23.937,16.918,38.436,14.69c15.741-1.321,31.593-5.077,44.946-13.91c13.21-9.263,25.975-19.688,35.317-33.025
				c14.34-21.152,24.479-44.819,33.534-68.629c4.934-12.685,6.844-26.245,9.725-39.487c0.541-5.968,7.401-6.86,11.857-8.929
				c11.459-4.154,22.425-9.725,32.516-16.616c9.311-6.398,18.813-12.844,26.261-21.47c8.865-10.043,14.929-22.234,19.178-34.887
				c1.655-0.43,3.39-0.796,5.205-1.114c17.427-0.78,35.444,2.021,51.026,10.186c-7.815,1.082-15.645,2.069-23.046,4.791
				c-13.098,4.074-23.094,13.91-32.93,22.966c-6.287,5.65-5.284,14.881-6.207,22.521c4.011,1.019,8.053,0.223,11.825-1.512
				c9.454,2.117,16.393,9.327,24.16,14.658c5.586,3.836,10.074,9.072,15.693,12.892c4.313,1.194,8.515-1.337,11.969-3.74
				c10.393-7.019,19.019-17.762,20.834-30.463c0.844-9.454,0.812-19.163-2.165-28.25c12.08,7.783,20.898,21.582,19.958,36.32
				c1.241,17.253-13.003,33.184-29.524,36.288c-24.017,4.711-48.575,4.679-72.751,7.767c-4.472,0.7-11.014-0.016-12.908,5.125
				c-7.528,21.868-21.152,40.919-34.426,59.604c-4.17,4.95-1.512,11.364-0.652,16.95c3.326,17.125-1.067,35.158-10.6,49.625
				c-14.626,23.937-39.901,38.962-65.429,48.909c-14.722,5.777-30.24,8.849-45.853,10.807c-12.732,2.801-25.783,1.703-38.659,1.862
				c-7.672,0.095-15.168-1.337-22.664-2.578c-30.844-4.138-61.084-15.884-85.324-35.619c-18.701-15.359-33.28-38.532-31.815-63.488
				c-0.223-6.764,1.671-13.353,1.926-20.07c-0.891-4.584-4.488-7.974-6.987-11.698c-6.255-8.435-11.125-17.762-16.234-26.882
				c-4.361-7.576-6.684-16.266-12.144-23.205c-14.197,13.067-24.16,30.144-30.813,48.129c-5.38,14.276-5.539,29.826-4.44,44.851
				c2.865,27.359,18.542,51.583,37.37,70.889c30.892,28.41,69.949,47.365,110.837,56.278c14.133,2.944,28.314,6.271,42.829,6.669
				c9.581,0.255,18.956,2.881,28.601,2.722c8.547,0.318,16.998-1.337,25.481-2.276c22.6-0.891,44.994-5.332,66.687-11.619
				c30.415-9.024,59.557-23.221,84.131-43.466c20.436-16.489,36.176-38.978,43.912-64.14c3.597-11.555,3.008-23.81,2.992-35.763
				c0-9.931-3.215-19.449-6.382-28.744c-2.244-6.637-6.589-12.43-7.894-19.385c15.788-3.151,30.892-8.849,46.283-13.576
				c6.223-1.942,11.953-5.443,18.446-6.653c2.563,0.923,3.804,3.677,5.236,5.873c6.318,11.65,11.793,23.937,14.006,37.115
				c5.73,25.608,0,52.633-11.889,75.647c-12.287,21.311-28.871,40.124-48.798,54.559c-27.168,20.738-58.427,35.588-90.783,46.235
				c-29.317,9.868-59.843,15.597-90.497,19.162c-23.237,3.072-46.681,1.003-70.013,1.639c-17.093,0.748-34.107-1.464-50.946-4.043
				c-34.68-4.568-68.724-13.799-101.097-27.025c-21.566-9.884-42.909-20.69-61.801-35.174
				c-26.579-19.576-49.036-46.124-59.047-78.019c-5.061-14.467-4.616-30.017-3.963-45.105c2.403-26.054,15.916-49.578,32.691-69.09
				c8.642-11.555,20.627-19.783,31.784-28.68c10.95-8.531,23.125-15.231,35.205-22.027c0.016-3.151,0.048-6.319,0.112-9.47
				C2118.404,324.623,2116.462,311.302,2118.213,297.949 M2424.83,510.853c-13.321,9.661-28.425,16.33-43.004,23.762
				c-13.942,6.939-29.603,8.594-44.453,12.621c-8.419,1.767-17.141,0.095-25.545,1.926c-12.875,2.658-26.022,0.143-38.5-3.088
				c-9.104-2.403-17.316-7.067-26.022-10.441c-16.52-6.844-30.765-17.794-45.662-27.455c-5.825-3.677-9.82-9.724-16.154-12.589
				c-0.955,8.324,1.926,16.712,7.066,23.253c4.138,5.348,7.656,11.364,13.067,15.629c9.009,7.178,18.335,14.165,29.094,18.59
				c17.571,8.022,36.415,13.528,55.769,14.945c16.313,2.292,32.977,2.387,49.307-0.08c28.68-2.817,57.392-12.144,80.295-30.049
				c13.592-10.664,24.081-26.277,26.07-43.689C2437.928,498.184,2432.055,505.458,2424.83,510.853z"/>
			<path fill="#F8CBAC" stroke="#F8CBAC" stroke-width="0.0938" d="M2530.367,346.587c9.916-10.823,21.088-21.741,35.667-25.704
				c9.772-1.13,20.134-1.719,29.572,1.751c2.977,9.088,3.008,18.796,2.165,28.25c-1.815,12.701-10.441,23.444-20.834,30.463
				c-2.133,0.653-4.202,1.241-6.191,1.83c-10.823-11.3-23.476-20.627-36.511-29.174
				C2531.29,352.587,2530.287,349.627,2530.367,346.587z"/>
			<path fill="#BC5D1B" stroke="#BC5D1B" stroke-width="0.0938" d="M2525.115,357.537c1.496-3.756,3.135-7.464,5.252-10.95
				c-0.08,3.04,0.923,6,3.867,7.417c13.035,8.547,25.688,17.873,36.511,29.174c1.99-0.589,4.058-1.178,6.191-1.83
				c-3.454,2.403-7.656,4.934-11.969,3.74c-5.618-3.82-10.107-9.056-15.693-12.892
				C2541.508,366.864,2534.568,359.654,2525.115,357.537z"/>
			<path fill="#C45B12" stroke="#C45B12" stroke-width="0.0938" d="M2424.83,510.853c7.226-5.395,13.099-12.669,21.327-16.664
				c-1.99,17.412-12.478,33.025-26.07,43.689c-22.903,17.905-51.615,27.232-80.295,30.049c-16.33,2.467-32.993,2.371-49.307,0.08
				c-19.354-1.416-38.198-6.923-55.769-14.945c-10.759-4.425-20.085-11.412-29.094-18.59c-5.411-4.265-8.928-10.282-13.067-15.629
				c-5.141-6.541-8.021-14.929-7.066-23.253c6.334,2.865,10.329,8.913,16.154,12.589c14.897,9.661,29.142,20.611,45.662,27.455
				c8.706,3.374,16.919,8.037,26.022,10.441c12.478,3.231,25.625,5.746,38.5,3.088c8.404-1.83,17.125-0.159,25.545-1.926
				c14.85-4.027,30.51-5.682,44.453-12.621C2396.404,527.183,2411.508,520.514,2424.83,510.853z"/>
		</g>
		<g>
			<path fill="#FC0101" stroke="#FC0101" stroke-width="0.0938" d="M1738.066,30.833c4.393,5.316,4.027,12.764,5.777,19.131
				c9.151,38.978,17.571,78.114,27.471,116.885c-17.937,0.907-35.906,0.637-53.843,0.573c-3.772-0.016-7.194-2.371-10.95-1.703
				c7.862-26.675,12.032-54.257,19.736-80.963C1729.79,66.707,1733.928,48.77,1738.066,30.833z"/>
			<path fill="#FED966" stroke="#FED966" stroke-width="0.0938" d="M1497.07,54.627c1.289-6.923,0-14.993,5.491-20.42
				c6.971,13.337,7.21,28.744,11.555,42.909c3.406,11.061,6.032,22.362,8.467,33.662c0.414,5.284,2.228,10.218,4.297,15.04
				c2.69,10.091,4.058,20.499,6.111,30.733c0.701,2.881,1.337,6.032,3.517,8.244c11.635,1.639,23.46-0.573,35.126,1.114
				l-1.353,0.668c-34.633,1.05-69.297-0.207-103.93,0.414c2.244-2.085,5.236-3.899,5.953-7.146
				c5.475-18.637,8.085-37.959,13.337-56.644c1.48-4.393,3.088-8.77,3.708-13.401C1490.895,77.88,1494.715,66.404,1497.07,54.627z"
				/>
			<path fill="#C10001" stroke="#C10001" stroke-width="0.0938" d="M1706.521,165.719c3.756-0.668,7.178,1.687,10.95,1.703
				c17.937,0.064,35.906,0.334,53.843-0.573c10.266,0.08,20.547,0.016,30.845,0.048c4.106-0.366,7.432,2.371,10.648,4.568
				c0.127,13.688,0.096,27.375,0.048,41.063c0.636,5.761-6.35,6.955-10.091,9.438c-0.366,11.173-0.016,22.362,0.048,33.55
				c-0.143,8.674,2.165,17.237,1.225,25.943c-1.225-7.671-4.297-15.136-3.597-23.014c0.684-9.916-0.573-19.815-0.318-29.746
				c0.446-6.573-7.862-6.287-12.382-6.907c-30.256-0.462-60.544-0.223-90.799-0.271c-5.093-0.493-9.167,2.531-12.319,6.112
				c-0.255-2.117-0.478-4.234-0.716-6.334c-0.589-0.143-1.735-0.462-2.308-0.605c-4.536-0.939-11.889-1.989-11.3-8.181
				c-0.223-12.191-0.127-24.399-0.096-36.59c-0.525-4.393,3.454-7.035,6.987-8.547
				C1686.866,165.734,1696.94,168.456,1706.521,165.719z"/>
			<path fill="#BF9101" stroke="#BF9101" stroke-width="0.0938" d="M1438.325,167.278c9.295-0.859,18.669-0.032,28.028-0.286
				c34.632-0.621,69.297,0.637,103.93-0.414c8.849,5.73,5.984,17.905,6.461,26.85c-0.509,8.515,2.244,19.783-5.443,25.799
				c-8.801,2.467-18.033,1.783-27.057,1.798c-23.874-0.064-47.747,0.016-71.621-0.032c-11.38-0.048-22.823,0.621-34.092-1.21
				c-2.928-1.91-4.95-5.22-4.727-8.77c-0.143-11.714-0.032-23.46,0.048-35.19C1433.535,172.387,1435.445,169.109,1438.325,167.278z"
				/>
			<path fill="#FED966" stroke="#FED966" stroke-width="0.0938" d="M1438.532,219.784c11.268,1.83,22.712,1.162,34.092,1.21
				c23.874,0.048,47.747-0.032,71.621,0.032c9.024-0.016,18.255,0.668,27.057-1.798c-2.021,1.544-4.743,2.547-5.905,4.886
				c-0.653,3.947-0.159,7.974,0.096,11.953c1.194,14.913-0.143,29.937,1.05,44.851c2.722,17.842,0.923,35.97,1.894,53.938
				c0.764,12.494,10.807,21.47,14.245,33.073c2.801,8.228,4.664,16.727,7.083,25.067c5.555,16.266,10.727,33.009,10.902,50.341
				c2.165,17.444,3.231,34.983,4.727,52.49c-0.557,21.216,1.035,42.527-1.384,63.647c1.066,10.664-1.146,21.232-0.923,31.895
				c0.064,6.175-0.636,12.335-2.005,18.351c-2.403,10.488-0.318,21.502-3.422,31.879c-3.485,12.557-6.573,25.226-9.963,37.8
				c-15.454,2.133-31.099,0.669-46.617,1.098c-31.306-0.016-62.612,0-93.919,0c-11.921-0.191-23.89,0.557-35.747-0.812
				c-2.196-4.488-5.284-8.451-7.449-12.908c-2.164-8.881-1.894-18.16-3.247-27.168c-2.053-12.812-4.249-25.672-4.106-38.691
				c0.127-19.544-3.231-39.041-1.464-58.586c2.133-22.951,1.401-46.187,5.459-68.947c1.353-10.886,2.26-21.852,4.457-32.627
				c4.822-18.319,7.369-37.131,11.539-55.594c6.08-13.226,17.412-23.078,24.001-36.001c2.992-4.775,6.971-9.549,6.366-15.597
				c-0.207-36.893,0.334-73.801-0.414-110.678C1443.769,222.044,1441.095,221.058,1438.532,219.784 M1447.827,425.304
				c-8.213,3.342-14.404,12.16-14.086,21.12c0.08,47.795,0.032,95.574,0.016,143.369c-0.143,11.157,9.884,21.98,21.327,21.311
				c33.964-0.127,67.96,0.096,101.94-0.095c12.382-1.401,19.831-14.308,19.735-25.974c0.048-43.545-0.064-87.075,0.048-130.604
				c0.048-6.223-1.114-12.446-3.342-18.239c-4.775-7.815-13.64-12.924-22.839-12.749c-22.823-0.08-45.646,0.016-68.453-0.016
				C1470.73,423.776,1459,422.153,1447.827,425.304z"/>
			<path fill="#FE0000" stroke="#FE0000" stroke-width="0.0938" d="M1681.597,220.691c0.573,0.143,1.719,0.462,2.308,0.605
				c0.239,2.101,0.462,4.218,0.716,6.334c3.151-3.581,7.226-6.605,12.319-6.112c30.256,0.048,60.543-0.191,90.799,0.271
				c4.52,0.621,12.828,0.334,12.382,6.907c-0.255,9.931,1.002,19.831,0.318,29.746c-0.7,7.878,2.371,15.343,3.597,23.014
				c0.732,8.292,0.064,16.664,0.318,24.988c-0.048,8.006,1.974,15.852,1.719,23.874c0.302,6.334-0.971,13.29,2.642,18.956
				c4.727,8.324,10.154,16.441,12.558,25.831c4.297,15.263,9.931,30.113,14.531,45.264c2.976,20.309,5.475,40.697,7.274,61.132
				c0.048,24.399,0.016,48.798,0,73.196c0.223,6.971-2.34,13.672-1.91,20.659c0.605,11.252-2.053,22.282-2.244,33.519
				c-2.514,13.544-2.514,27.598-7.114,40.712c-3.469,10.075-5.618,20.547-9.263,30.558c-41.302,0.844-82.619,0.127-123.92,0.366
				c-16.25-0.35-32.563,0.732-48.766-0.605c-3.502-7.751-10.218-14.42-10.457-23.332c-0.493-8.388-1.958-16.68-2.308-25.083
				c-1.958-7.815-1.735-15.9-1.862-23.889c-0.159-9.788,0.685-19.656-1.082-29.349c-0.716,9.549-0.494,19.115-0.605,28.68
				c-1.926-7.64-0.223-15.757-0.875-23.571c0.541-13.783-3.008-27.455-1.114-41.19c1.528-8.992,1.13-18.16,1.241-27.248
				c-0.016-8.579,2.674-16.902,2.626-25.481c-0.143-4.393,0.684-8.69,1.623-12.955c1.241-13.497,1.91-27.264,6.191-40.235
				c1.847-7.799,3.358-15.661,5.794-23.301c3.04-10.313,2.34-22.027,8.626-31.179c7.162-11.061,12.557-23.205,20.531-33.757
				c2.021-2.944,4.664-5.889,4.854-9.645c1.464-33.98-0.127-67.976,0.175-101.972
				C1683.157,231.132,1683.762,225.641,1681.597,220.691 M1683.905,425.718c-6.923,4.743-14.197,11.491-13.608,20.674
				c-0.064,48.32-0.064,96.656,0,144.976c0.525,12.669,12.908,21.852,25.051,21.789c30.845,0.032,61.673,0.048,92.518,0
				c12.016,0.095,25.067-8.801,25.004-21.725c0.064-47.795-0.016-95.59,0.032-143.385c-0.159-3.963,0.255-8.372-2.419-11.65
				c-4.377-5.698-10.011-11.921-17.889-11.475c-35.747,0.255-71.557-0.541-107.272,0.414c2.706-0.844,5.539-1.337,8.467-1.273
				c22.298,0.255,44.612,0.08,66.926,0.111c12.351-0.366,24.781,0.828,37.116-0.509c-2.181-0.923-4.472-1.448-6.764-1.353
				c-32.961,0.159-65.923-0.016-98.885,0.064C1689.221,422.773,1684.701,421.866,1683.905,425.718z"/>
			<path fill="#B12421" stroke="#B12421" stroke-width="0.0938" d="M1683.905,425.718c0.796-3.852,5.316-2.944,8.276-3.342
				c32.961-0.08,65.923,0.095,98.885-0.064c2.292-0.095,4.584,0.43,6.764,1.353c-12.335,1.337-24.765,0.143-37.116,0.509
				c-22.314-0.032-44.628,0.143-66.926-0.111c-2.928-0.064-5.761,0.43-8.467,1.273L1683.905,425.718z"/>
			<path fill="#FE0000" stroke="#FE0000" stroke-width="0.0938" d="M1447.827,425.304c11.173-3.151,22.903-1.528,34.346-1.878
				c22.807,0.032,45.63-0.064,68.453,0.016c9.199-0.175,18.065,4.934,22.839,12.749c2.228,5.793,3.39,12.016,3.342,18.239
				c-0.112,43.53,0,87.059-0.048,130.604c0.096,11.666-7.353,24.574-19.735,25.974c-33.98,0.191-67.976-0.032-101.94,0.095
				c-11.443,0.669-21.47-10.154-21.327-21.311c0.016-47.795,0.064-95.574-0.016-143.369
				C1433.423,437.464,1439.615,428.646,1447.827,425.304z"/>
			<path fill="#FFFFFF" stroke="#FFFFFF" stroke-width="0.0938" d="M1670.297,446.392c-0.589-9.183,6.685-15.932,13.608-20.674
				l1.416-0.382c35.715-0.955,71.526-0.159,107.272-0.414c7.878-0.446,13.512,5.777,17.889,11.475
				c2.674,3.279,2.26,7.687,2.419,11.65c-0.048,47.795,0.032,95.59-0.032,143.385c0.064,12.924-12.987,21.82-25.004,21.725
				c-30.845,0.048-61.673,0.032-92.518,0c-12.144,0.064-24.526-9.12-25.051-21.789
				C1670.233,543.049,1670.233,494.712,1670.297,446.392z"/>
			<path fill="#D61F17" stroke="#D61F17" stroke-width="0.0938" d="M1634.153,578.254c1.767,9.693,0.923,19.56,1.082,29.349
				l-1.687-0.669C1633.659,597.369,1633.436,587.804,1634.153,578.254z"/>
		</g>
		<g>
			<path fill="#C55B11" stroke="#C55B11" stroke-width="0.0938" d="M927.091,230.348c13.624-2.801,27.55-1.687,41.349-1.83
				c21.805,0.939,43.227,5.905,63.997,12.414c15.104,5.762,30.67,10.775,44.548,19.226c16.17,9.311,31.402,20.229,45.599,32.293
				c7.767,7.624,15.772,15.009,23.189,22.966c26.579,30.288,47.158,65.907,59.541,104.28c-43.402,0.621-86.82,0.032-130.223,0.223
				c-119.384,0.032-238.752-0.064-358.12,0.048c-3.135-0.048-6.255-0.286-9.358-0.573c6.987-25.067,19.306-48.304,32.977-70.332
				c21.343-33.057,50.485-60.591,83.319-82.077c18.462-11.396,37.943-21.423,58.92-27.295
				C897.36,235.664,911.923,231.112,927.091,230.348 M909.934,244.497c5.586,4.186,12.621,3.581,18.351-0.016
				C925.452,236.953,912.608,236.794,909.934,244.497 M941.765,241.887c-2.133,2.419,0.446,5.38,2.913,6.08
				c4.058,0.828,8.212,0.095,12.239-0.589c0.366-1.178,1.098-3.549,1.464-4.743C953.129,240.327,947.224,240.343,941.765,241.887
				 M977.035,249.145c2.292,8.228,12.908,6.159,18.558,2.881C993.444,244.242,982.239,244.465,977.035,249.145 M889.084,248.158
				c-0.239,1.146-0.732,3.454-0.971,4.6c5.491,3.581,12.987,2.435,18.478-0.573C903.17,245.739,894.941,248.603,889.084,248.158
				 M930.099,255.097c-2.658,0.605-2.403,3.708-3.04,5.777c-3.979,0.557-12.844-0.637-12.032,5.3
				c4.584,3.915,10.982,3.565,16.298,1.512c0.477-2.18,0.955-4.345,1.432-6.51c4.122,0,8.372-0.159,12-2.371
				c-0.764-1.432-1.544-2.881-2.292-4.313C938.343,254.381,934.11,253.887,930.099,255.097 M954.912,258.821
				c3.199,3.31,7.942,5.57,12.494,3.645c2.037-1.13,6.398-1.56,5.173-4.791C967.835,253.123,958.556,252.694,954.912,258.821
				 M1014.755,257.166c0.048,1.958,0.096,3.931,0.143,5.905c5.555,0.987,11.221,1.035,16.791-0.016c0-1.894,0.016-3.788,0.032-5.682
				C1026.119,256.259,1020.373,256.259,1014.755,257.166 M882.702,269.946c0.637,1.369,1.273,2.753,1.894,4.138
				c4.966,0.35,9.947,0.366,14.913,0c0.653-1.369,1.305-2.722,1.974-4.074C896.31,265.856,887.906,265.856,882.702,269.946
				 M980.998,272.827c5.809,3.39,13.099,4.663,18.812,0.302C997.518,264.599,984.817,266.429,980.998,272.827 M1050.788,272.827
				c-1.83,2.037-0.255,5.73,2.34,6.143c4.425,1.464,9.024,0.223,13.449-0.477c0.032-2.069,0.048-4.122,0.064-6.175
				C1061.388,272.191,1055.897,271.124,1050.788,272.827 M852.335,274.864c-2.419,6.478,5.777,7.99,10.425,7.098
				c2.61-0.764,7.433-1.337,6.494-5.173C865.115,272.047,857.794,274.339,852.335,274.864 M919.674,278.541
				c-0.032,0.907-0.08,2.722-0.111,3.645c5.38,4.361,13.051,4.059,18.462-0.08C934.985,274.562,925.738,276.042,919.674,278.541
				 M1004.028,278.366c-0.048,1.003-0.127,3.008-0.175,3.995c5.045,3.899,11.746,3.072,16.998,0.064
				c-0.096-1.019-0.271-3.056-0.366-4.059C1015.169,276.233,1009.328,276.074,1004.028,278.366 M1081.49,283.252
				c2.196,7.671,13.242,7.401,18.335,2.578C1097.023,277.745,1087.251,280.18,1081.49,283.252 M959.846,283.841
				c-1.783,0.939-4.186,2.117-3.661,4.568c5.618,3.852,13.29,4.138,18.224-1.019C971.528,282.154,964.843,281.979,959.846,283.841
				 M1027.153,286.117c3.947,4.663,10.632,3.692,16.043,3.104c3.151-0.255,4.234-4.616,1.13-5.953
				C1038.565,282.552,1031.546,281.342,1027.153,286.117 M985.74,289.157c2.913,5.873,10.154,4.918,15.55,3.979
				c2.626-0.239,1.878-3.724,2.451-5.491C997.773,285.289,991.152,285.56,985.74,289.157 M874.649,290.844
				c0.493,1.607,0.971,3.231,1.464,4.854c5.953,0.127,13.433,2.101,17.762-3.295C888.623,287.342,880.713,287.183,874.649,290.844
				 M827.49,293.756c5.029,5.316,12.621,5.029,18.462,1.257c-0.939-1.91-1.401-4.647-3.772-5.284
				C837.104,288.966,830.196,288.249,827.49,293.756 M905.35,293.82c1.639,1.862,2.881,4.854,5.889,4.329
				c4.202,0.255,12.367,0.287,12.191-5.491C918.401,288.265,909.409,287.883,905.35,293.82 M1055.292,289.841
				c-0.414,1.066-1.257,3.183-1.671,4.25c5.22,3.199,11.491,1.783,17.253,1.448c0.175-2.053-0.271-3.931-1.337-5.602
				C1064.842,288.918,1060.019,289.443,1055.292,289.841 M933.25,297.051c5.746,1.719,11.778,1.241,17.682,0.971
				c-0.048-1.862-0.08-3.724-0.111-5.571c-4.663-0.875-9.454-1.464-14.149-0.525C935.176,293.358,934.301,295.284,933.25,297.051
				 M964.811,297.083c-0.812,3.183,3.374,3.947,5.507,4.822c4.409,1.655,8.579-1.019,12.16-3.263
				C979.581,291.703,969.331,292.149,964.811,297.083 M1014.93,295.889c-0.016,1.926-0.032,3.852-0.048,5.793
				c5.602,1.05,11.332,1.003,16.902-0.143c-0.159-1.783-0.302-3.565-0.446-5.348C1025.88,295.746,1020.389,295.698,1014.93,295.889
				 M1091.914,296.223c-0.271,0.971-0.828,2.928-1.114,3.899c5.013,3.692,11.523,2.324,17.205,1.353c0-1.83,0.032-3.661,0.064-5.491
				C1102.673,295.714,1097.278,295.746,1091.914,296.223 M806.338,298.69c0.064,1.91,0.143,3.82,0.207,5.73
				c5.73,2.244,11.984,1.846,17.268-1.369C821.713,295.3,812.148,298.26,806.338,298.69 M1038.517,306.171
				c2.897,1.989,5.777,4.743,9.549,4.695c3.756,0.143,6.876-2.228,9.916-4.106c-0.875-1.48-1.751-2.944-2.61-4.409
				C1049.658,302.637,1042.066,300.186,1038.517,306.171 M1068.614,305.279c0.621,2.021,0.589,5.586,3.549,5.555
				c5.045,0.605,12.924,1.226,14.054-5.395C1080.741,302.223,1073.898,300.918,1068.614,305.279 M962.87,305.629
				c-0.159,1.719-0.334,3.438-0.493,5.173c5.236,0.398,11.252,2.021,16.043-0.796c2.371-1.639-0.318-4.552-2.101-5.332
				C971.846,303.783,967.199,304.293,962.87,305.629z"/>
			<path fill="#FCF612" stroke="#FCF612" stroke-width="0.0938" d="M909.934,244.497c2.674-7.703,15.518-7.544,18.351-0.016
				C922.555,248.078,915.52,248.683,909.934,244.497z"/>
			<path fill="#FCF419" stroke="#FCF419" stroke-width="0.0938" d="M941.765,241.887c5.459-1.544,11.364-1.56,16.616,0.748
				c-0.366,1.194-1.098,3.565-1.464,4.743c-4.027,0.684-8.181,1.417-12.239,0.589C942.211,247.266,939.633,244.306,941.765,241.887z
				"/>
			<path fill="#FBF811" stroke="#FBF811" stroke-width="0.0938" d="M977.035,249.145c5.204-4.679,16.409-4.902,18.558,2.881
				C989.942,255.304,979.326,257.373,977.035,249.145z"/>
			<path fill="#FDF417" stroke="#FDF417" stroke-width="0.0938" d="M889.084,248.158c5.857,0.446,14.085-2.419,17.507,4.027
				c-5.491,3.008-12.987,4.154-18.478,0.573C888.352,251.611,888.846,249.304,889.084,248.158z"/>
			<path fill="#FCF616" stroke="#FCF616" stroke-width="0.0938" d="M930.099,255.097c4.011-1.21,8.244-0.716,12.367-0.605
				c0.748,1.432,1.528,2.881,2.292,4.313c-3.629,2.212-7.878,2.371-12,2.371c-0.477,2.165-0.955,4.329-1.432,6.51
				c-5.316,2.053-11.714,2.403-16.298-1.512c-0.812-5.937,8.053-4.743,12.032-5.3C927.696,258.805,927.441,255.702,930.099,255.097z
				"/>
			<path fill="#FBFA0F" stroke="#FBFA0F" stroke-width="0.0938" d="M954.912,258.821c3.645-6.128,12.924-5.698,17.666-1.146
				c1.226,3.231-3.135,3.661-5.173,4.791C962.854,264.392,958.111,262.132,954.912,258.821z"/>
			<path fill="#FDF415" stroke="#FDF415" stroke-width="0.0938" d="M1014.755,257.166c5.618-0.907,11.364-0.907,16.966,0.207
				c-0.016,1.894-0.032,3.788-0.032,5.682c-5.571,1.05-11.237,1.003-16.791,0.016
				C1014.85,261.097,1014.803,259.124,1014.755,257.166z"/>
			<path fill="#FDF312" stroke="#FDF312" stroke-width="0.0938" d="M882.702,269.946c5.204-4.09,13.608-4.09,18.781,0.064
				c-0.668,1.353-1.321,2.706-1.974,4.074c-4.966,0.366-9.947,0.35-14.913,0C883.975,272.7,883.339,271.315,882.702,269.946z"/>
			<path fill="#FEF50D" stroke="#FEF50D" stroke-width="0.0938" d="M980.998,272.827c3.82-6.398,16.521-8.228,18.812,0.302
				C994.096,277.49,986.807,276.217,980.998,272.827z"/>
			<path fill="#FDF41A" stroke="#FDF41A" stroke-width="0.0938" d="M1050.788,272.827c5.109-1.703,10.6-0.637,15.852-0.509
				c-0.016,2.053-0.032,4.106-0.064,6.175c-4.425,0.7-9.024,1.942-13.449,0.477C1050.533,278.557,1048.958,274.864,1050.788,272.827
				z"/>
			<path fill="#FCF80E" stroke="#FCF80E" stroke-width="0.0938" d="M852.335,274.864c5.459-0.525,12.78-2.817,16.918,1.926
				c0.939,3.836-3.883,4.409-6.494,5.173C858.112,282.854,849.916,281.342,852.335,274.864z"/>
			<path fill="#FDF311" stroke="#FDF311" stroke-width="0.0938" d="M919.674,278.541c6.064-2.499,15.311-3.979,18.351,3.565
				c-5.411,4.138-13.083,4.44-18.462,0.08C919.595,281.262,919.642,279.448,919.674,278.541z"/>
			<path fill="#FDF714" stroke="#FDF714" stroke-width="0.0938" d="M1004.028,278.366c5.3-2.292,11.141-2.133,16.457,0
				c0.096,1.003,0.271,3.04,0.366,4.059c-5.252,3.008-11.953,3.836-16.998-0.064C1003.9,281.374,1003.98,279.369,1004.028,278.366z"
				/>
			<path fill="#FDF50E" stroke="#FDF50E" stroke-width="0.0938" d="M1081.49,283.252c5.761-3.072,15.534-5.507,18.335,2.578
				C1094.731,290.653,1083.686,290.923,1081.49,283.252z"/>
			<path fill="#FCF913" stroke="#FCF913" stroke-width="0.0938" d="M959.846,283.841c4.998-1.862,11.682-1.687,14.563,3.549
				c-4.934,5.157-12.605,4.87-18.224,1.019C955.66,285.958,958.063,284.78,959.846,283.841z"/>
			<path fill="#FCF31A" stroke="#FCF31A" stroke-width="0.0938" d="M1027.153,286.117c4.393-4.775,11.411-3.565,17.173-2.849
				c3.104,1.337,2.021,5.698-1.13,5.953C1037.785,289.809,1031.1,290.78,1027.153,286.117z"/>
			<path fill="#FDF418" stroke="#FDF418" stroke-width="0.0938" d="M985.74,289.157c5.411-3.597,12.032-3.868,18.001-1.512
				c-0.573,1.767,0.175,5.252-2.451,5.491C995.895,294.075,988.653,295.03,985.74,289.157z"/>
			<path fill="#FEF113" stroke="#FEF113" stroke-width="0.0938" d="M874.649,290.844c6.064-3.661,13.974-3.501,19.226,1.56
				c-4.329,5.395-11.809,3.422-17.762,3.295C875.62,294.075,875.142,292.451,874.649,290.844z"/>
			<path fill="#FDF415" stroke="#FDF415" stroke-width="0.0938" d="M827.49,293.756c2.706-5.507,9.613-4.791,14.69-4.027
				c2.371,0.637,2.833,3.374,3.772,5.284C840.112,298.786,832.52,299.072,827.49,293.756z"/>
			<path fill="#FEF316" stroke="#FEF316" stroke-width="0.0938" d="M905.35,293.82c4.058-5.937,13.051-5.555,18.08-1.162
				c0.175,5.777-7.99,5.746-12.191,5.491C908.231,298.674,906.989,295.682,905.35,293.82z"/>
			<path fill="#FDF41C" stroke="#FDF41C" stroke-width="0.0938" d="M1055.292,289.841c4.727-0.398,9.549-0.923,14.245,0.095
				c1.066,1.671,1.512,3.549,1.337,5.602c-5.761,0.334-12.032,1.751-17.253-1.448
				C1054.035,293.024,1054.878,290.907,1055.292,289.841z"/>
			<path fill="#FDF319" stroke="#FDF319" stroke-width="0.0938" d="M933.25,297.051c1.05-1.767,1.926-3.692,3.422-5.125
				c4.695-0.939,9.486-0.35,14.149,0.525c0.032,1.846,0.064,3.708,0.111,5.571C945.028,298.292,938.996,298.77,933.25,297.051z"/>
			<path fill="#FEF610" stroke="#FEF610" stroke-width="0.0938" d="M964.811,297.083c4.52-4.934,14.77-5.38,17.666,1.56
				c-3.581,2.244-7.751,4.918-12.16,3.263C968.185,301.03,964,300.266,964.811,297.083z"/>
			<path fill="#FCF220" stroke="#FCF220" stroke-width="0.0938" d="M1014.93,295.889c5.459-0.191,10.95-0.143,16.409,0.302
				c0.143,1.783,0.286,3.565,0.446,5.348c-5.571,1.146-11.3,1.194-16.902,0.143C1014.898,299.741,1014.914,297.815,1014.93,295.889z
				"/>
			<path fill="#FEF226" stroke="#FEF226" stroke-width="0.0938" d="M1091.914,296.223c5.364-0.477,10.759-0.509,16.154-0.239
				c-0.032,1.83-0.064,3.661-0.064,5.491c-5.682,0.971-12.191,2.34-17.205-1.353
				C1091.087,299.152,1091.644,297.194,1091.914,296.223z"/>
			<path fill="#FCF512" stroke="#FCF512" stroke-width="0.0938" d="M806.338,298.69c5.809-0.43,15.375-3.39,17.475,4.361
				c-5.284,3.215-11.539,3.613-17.268,1.369C806.482,302.51,806.402,300.6,806.338,298.69z"/>
			<path fill="#FCF413" stroke="#FCF413" stroke-width="0.0938" d="M1038.517,306.171c3.549-5.984,11.141-3.533,16.855-3.82
				c0.859,1.464,1.735,2.928,2.61,4.409c-3.04,1.878-6.159,4.25-9.916,4.106C1044.294,310.913,1041.414,308.16,1038.517,306.171z"/>
			<path fill="#FDF617" stroke="#FDF617" stroke-width="0.0938" d="M1068.614,305.279c5.284-4.361,12.128-3.056,17.603,0.159
				c-1.13,6.621-9.008,6-14.054,5.395C1069.203,310.866,1069.234,307.301,1068.614,305.279z"/>
			<path fill="#FDF516" stroke="#FDF516" stroke-width="0.0938" d="M962.87,305.629c4.329-1.337,8.977-1.846,13.449-0.955
				c1.783,0.78,4.472,3.692,2.101,5.332c-4.791,2.817-10.807,1.194-16.043,0.796C962.535,309.067,962.71,307.348,962.87,305.629z"/>
			<path fill="#843C0C" stroke="#843C0C" stroke-width="0.0938" d="M752.75,427.162c2.34-0.43,4.711-0.716,7.098-0.764
				c131.114,0,262.243,0.032,393.357-0.016c4.775,0,9.295,1.942,14.07,1.974c12.621-0.175,24.844,3.374,36.94,6.541
				c6.271,1.655,12.796,4.536,16.409,10.218c1.019,4.17-2.722,7.146-5.698,9.279c-10.393,6.716-23.173,7.21-34.919,9.82
				c-6.175,1.592-12.621,0.446-18.828,1.719c-4.249,0.844-8.499,1.846-12.844,1.83c-127.883,0.016-255.75-0.016-383.617,0
				c-6.462,0.302-12.573-2.308-19.003-2.451c-14.276,0.064-28.362-3.279-41.858-7.719c-4.902-2.181-11.618-4.647-12.16-10.839
				c0.605-4.998,5.698-7.305,9.709-9.215c10.807-4.281,22.282-6.43,33.598-8.849C740.909,428.053,746.925,428.547,752.75,427.162z"
				/>
			<path fill="#FEFD05" stroke="#FEFD05" stroke-width="0.0938" d="M693.13,486.257c-0.207-4.17-2.499-10.202,1.608-13.051
				c5.793-0.668,11.65-0.239,17.475-0.302c137.926,0.016,275.867,0,413.809,0c31.449,0.271,62.915-0.493,94.348,0.334
				c0.366,4.361,0.35,8.738-0.271,13.083c-6.398,0.668-12.844,0.653-19.274,0.557c-161.274-0.016-322.564,0.016-483.838-0.016
				C709.046,486.782,701.04,487.339,693.13,486.257z"/>
			<path fill="#843C0C" stroke="#843C0C" stroke-width="0.0938" d="M757.334,494.645c7.162-1.305,14.483-0.971,21.725-1.003
				c121.501,0,242.985,0,364.47,0c4.854-0.016,9.629,0.844,14.436,1.464c6.987,0.939,14.197-0.239,21.041,1.926
				c13.385,3.135,29.046,2.976,39.646,12.971c4.488,3.549,0.589,9.311-3.135,11.603c-10.823,5.905-23.078,8.26-35.206,9.597
				c-9.581,2.769-19.624,1.003-29.349,2.753c-7.687,1.496-15.566,0.971-23.348,1.035c-110.885,0-221.754,0-332.639,0
				c-14.165-0.318-28.489,1.019-42.495-1.703c-14.722-0.096-29.158-3.406-43.354-7.019c-5.746-1.512-11.825-3.661-15.9-8.149
				c-2.96-3.279-1.05-8.149,2.515-9.995c13.146-8.006,28.871-8.945,43.545-12.144C745.286,495.297,751.381,495.806,757.334,494.645z
				"/>
			<path fill="#FCFD0B" stroke="#FCFD0B" stroke-width="0.0938" d="M693.114,540.959c175.932-0.048,351.865-0.239,527.797,0.048
				c0.032,4.982,0.048,9.963,0.032,14.961c-13.703,1.735-27.534,0.207-41.27,1.162c-9.231-1.655-18.494-3.104-27.837-3.788
				l-1.082-0.764c-2.706-2.865-6.796-2.292-10.361-2.451c-17.523,0-35.046,0.016-52.57-0.032c-9.74-0.255-19.497-0.509-29.205,0.589
				c-37.879-1.862-75.823-0.302-113.734-1.13c-25.624-1.369-51.503-3.836-77.048-0.016c-17.237,0.621-34.505-0.43-51.71,0.796
				c-33.566-0.637-67.164,0.207-100.747-0.207c-4.138,0.302-9.311-0.971-12.112,2.976l-0.509,0.462
				c-3.358,0.127-6.716,0-10.059-0.255C692.286,549.188,692.382,545.034,693.114,540.959z"/>
			<path fill="#8CCD0A" stroke="#8CCD0A" stroke-width="0.0938" d="M867.837,549.538c25.545-3.82,51.424-1.353,77.048,0.016
				c-6.605,0.064-13.194,0.668-19.799,0.796c-15.104-0.191-30.256-1.894-45.328-0.143
				C875.779,550.031,871.816,549.665,867.837,549.538z"/>
			<path fill="#CFFE3D" stroke="#CFFE3D" stroke-width="0.0938" d="M703.268,553.103c2.801-3.947,7.974-2.674,12.112-2.976
				c33.582,0.414,67.18-0.43,100.747,0.207c-6.478,1.082-12.987,2.005-19.56,1.878c-27.598-0.143-55.196,0.064-82.794-0.127
				C710.239,552.084,706.706,552.307,703.268,553.103z"/>
			<path fill="#62C01F" stroke="#62C01F" stroke-width="0.0938" d="M816.127,550.334c17.205-1.225,34.473-0.175,51.71-0.796
				c3.979,0.127,7.942,0.493,11.921,0.668c-11.603,2.881-23.619,2.069-35.444,2.387c-13.29-0.446-26.532,0.668-39.789,0.955
				c-33.916,0.016-67.849,0.048-101.765,0.016l0.509-0.462c3.438-0.796,6.971-1.019,10.504-1.019
				c27.598,0.191,55.196-0.016,82.794,0.127C803.139,552.339,809.649,551.416,816.127,550.334z"/>
			<path fill="#01AF50" stroke="#01AF50" stroke-width="0.0938" d="M879.758,550.206c15.072-1.751,30.224-0.048,45.328,0.143
				c9.677,0.573,19.274,2.419,29.014,2.34c24.94-0.127,49.896,0,74.836-0.08c40.935,1.56,81.95,1.353,122.901,0.732
				c9.342,0.684,18.605,2.133,27.837,3.788c11.809,2.435,24.112,7.56,31.179,17.826c3.693,5.284,8.977,9.47,11.523,15.518
				c3.597,8.674,4.759,18.096,8.149,26.85c1.942,5.045,3.708,10.17,4.95,15.454c-5.65-1.767-11.125-4.09-16.139-7.242
				c-6.271-3.979-13.497-6.207-19.592-10.457c-3.295-2.435-6.446-5.013-9.645-7.544c-0.223-2.562-1.608-3.708-4.138-3.422
				c-4.52-3.072-9.056-8.563-15.136-6.748c-4.393,2.069-6.637,6.685-9.581,10.282c-2.547,3.645-6.143,6.414-8.451,10.218
				c-1.735,3.772-2.658,7.862-3.772,11.841c-6-0.334-10.059-5.141-14.77-8.244c-5.3-3.947-11.523-6.303-17.842-8.053
				c-6.128-1.56-10.091-7.051-15.884-9.295c-7.99-3.151-16.345-5.507-24.892-6.414c-0.43,16.648-2.069,33.757-8.356,49.323
				c-5.889-2.18-9.9-7.178-13.242-12.239c-5.204-7.958-10.393-15.995-16.473-23.332c-2.228-2.929-5.793-4.122-9.008-5.507
				c-8.372-3.215-15.916-9.088-25.242-9.215c-5.984,12.78-11.714,25.704-16.17,39.105c-10.552,2.531-18.303-5.984-25.115-12.542
				c-7.051-6.255-14.611-11.889-21.852-17.921c-5.395-4.663-13.481-6.971-20.038-3.374c-4.504,4.775-6.414,11.364-10.695,16.346
				c-6.303,7.576-11.396,16.138-18.08,23.396c-0.493,0.016-1.496,0.064-1.99,0.08c-3.645-3.756-6.175-8.563-10.584-11.587
				c-10.457-7.417-18.733-17.555-29.54-24.478c-5.57-1.894-12.717-4.074-18.096-0.828c-3.231,7.846-2.642,17.396-8.212,24.176
				c-3.199,0.621-5.905-1.56-8.595-2.865c-7.592-4.456-16.25-6.637-23.73-11.316c-8.674-5.332-18.701-9.263-29.062-8.181
				c-5.825,4.504-6.907,14.149-14.42,16.759c-6.462,0.43-14.467,0.509-18.876-5.093c-4.998-5.984-9.82-12.128-15.343-17.682
				c-8.897-8.738-12.542-20.881-18.144-31.688c-4.743-0.621-9.629-1.114-13.878-3.501c0.08-0.939,0.207-2.817,0.271-3.756
				c2.515-2.228,5.013-4.52,7.958-6.143c4.074-2.69,9.215-0.605,13.64-2.069c33.916,0.032,67.849,0,101.765-0.016
				c13.258-0.286,26.5-1.401,39.789-0.955C856.139,552.275,868.155,553.087,879.758,550.206z"/>
			<path fill="#4BBC28" stroke="#4BBC28" stroke-width="0.0938" d="M925.086,550.35c6.605-0.127,13.194-0.732,19.799-0.796
				c37.911,0.828,75.854-0.732,113.734,1.13c13.306,2.547,26.898,1.225,40.346,1.56c17.253,0.255,34.553-0.446,51.79,0.334
				l1.082,0.764c-40.951,0.621-81.966,0.828-122.901-0.732c-24.94,0.08-49.896-0.048-74.836,0.08
				C944.36,552.769,934.762,550.923,925.086,550.35z"/>
			<path fill="#CBFE39" stroke="#CBFE39" stroke-width="0.0938" d="M1058.619,550.684c9.709-1.098,19.465-0.844,29.205-0.589
				c17.523,0.048,35.046,0.032,52.57,0.032c3.565,0.159,7.656-0.414,10.361,2.451c-17.237-0.78-34.537-0.08-51.79-0.334
				C1085.516,551.909,1071.924,553.23,1058.619,550.684z"/>
			<path fill="#C55B11" stroke="#C55B11" stroke-width="0.0938" d="M987.141,635.833c4.456-13.401,10.186-26.325,16.17-39.105
				c9.327,0.127,16.871,6,25.242,9.215c3.215,1.385,6.78,2.578,9.008,5.507c6.08,7.337,11.268,15.375,16.473,23.332
				c3.342,5.061,7.353,10.059,13.242,12.239c6.287-15.566,7.926-32.675,8.356-49.323c8.547,0.907,16.902,3.263,24.892,6.414
				c5.793,2.244,9.756,7.735,15.884,9.295c6.318,1.751,12.542,4.106,17.842,8.053c4.711,3.104,8.77,7.91,14.77,8.244
				c1.114-3.979,2.037-8.069,3.772-11.841c2.308-3.804,5.905-6.573,8.451-10.218c2.944-3.597,5.189-8.213,9.581-10.282
				c6.08-1.814,10.616,3.677,15.136,6.748c0.175,2.578,1.56,3.724,4.138,3.422c3.199,2.531,6.35,5.109,9.645,7.544
				c0.525,12.796,0.048,25.608,0.255,38.421c0.048,7.624-0.446,16.091-5.714,22.107c-3.979,3.104-8.992,5.061-14.085,4.982
				c-149.13-0.048-298.261,0-447.391-0.016c-11.809,0.653-20.324-11.252-19.958-22.202c0.032-19.21-0.016-38.436,0.064-57.647
				c5.523,5.555,10.345,11.698,15.343,17.682c4.409,5.602,12.414,5.523,18.876,5.093c7.512-2.61,8.594-12.255,14.42-16.759
				c10.361-1.082,20.388,2.849,29.062,8.181c7.48,4.679,16.139,6.86,23.73,11.316c2.69,1.305,5.395,3.486,8.595,2.865
				c5.57-6.78,4.982-16.329,8.212-24.176c5.38-3.247,12.526-1.066,18.096,0.828c10.807,6.923,19.083,17.062,29.54,24.478
				c4.409,3.024,6.939,7.831,10.584,11.587c0.493-0.016,1.496-0.064,1.99-0.08c6.685-7.258,11.778-15.82,18.08-23.396
				c4.281-4.982,6.191-11.571,10.695-16.346c6.557-3.597,14.642-1.289,20.038,3.374c7.242,6.032,14.802,11.666,21.852,17.921
				C968.838,629.849,976.589,638.364,987.141,635.833z"/>
			<path fill="#62832F" stroke="#62832F" stroke-width="0.0938" d="M1185.96,604.113c2.531-0.286,3.915,0.859,4.138,3.422
				C1187.52,607.837,1186.135,606.691,1185.96,604.113z"/>
		</g>
	</g>
</g>
</svg>
